<svg width="147" height="38" viewBox="0 0 147 38" fill="none" xmlns="http://www.w3.org/2000/svg">
<path d="M42.4041 18.874L35.2862 18.5741L34.7562 19.7361L42.4041 18.874Z" fill="#DE4B3D"/>
<path d="M30.175 23.1099L30.9322 21.573L41.1547 21.9103L30.175 23.1099Z" fill="#DE4B3D"/>
<path d="M28.7742 26.1462L29.5314 24.7218L39.0723 24.9842L28.7742 26.1462Z" fill="#DE4B3D"/>
<path d="M42.4041 18.874L35.2862 18.5741L34.7562 19.7361L42.4041 18.874Z" stroke="#FF0000"/>
<path d="M30.175 23.1099L30.9322 21.573L41.1547 21.9103L30.175 23.1099Z" stroke="#FF0000"/>
<path d="M28.7742 26.1462L29.5314 24.7218L39.0723 24.9842L28.7742 26.1462Z" stroke="#FF0000"/>
<path fill-rule="evenodd" clip-rule="evenodd" d="M9.53319 10.3727C9.7972 10.5735 10.3327 11.2991 10.3629 12.5946C10.3629 13.1068 10.2623 13.6366 10.2121 13.8374H17.6419C18.019 13.85 18.7054 14.1387 18.4339 15.1932C18.1623 16.2477 17.8682 16.6619 17.755 16.7373C17.5539 16.8879 17.1063 17.1892 16.9253 17.1892H9.60862L7.57202 27.2821L16.4727 27.2444C17.3653 27.2696 19.3466 26.9658 20.1311 25.5497C20.5836 24.5856 20.8728 23.4659 20.9608 23.0265C21.0488 22.6373 21.2474 21.6406 21.3379 20.7669C21.4511 19.6747 20.8476 18.8086 19.2636 18.6203C19.8922 18.4571 21.2323 17.852 21.5642 16.7373C21.9791 15.3438 22.2431 13.6491 22.2431 13.1219C22.2431 12.5946 22.2054 11.5025 21.3757 11.0506C20.5459 10.5986 19.9425 10.448 19.1128 10.3727C18.449 10.3124 12.4498 10.3476 9.53319 10.3727ZM16.7367 20.3526H12.2864L11.4944 24.0433H16.0956C17.227 24.0433 17.755 22.9512 17.755 21.6707C17.755 20.6464 17.0762 20.3652 16.7367 20.3526Z" fill="url(#paint0_linear_451_2)"/>
<path d="M24.4225 8.63568L24.2339 9.72709H31.1354L34.4164 11.383L34.6427 10.2163L31.6256 8.67332L24.4225 8.63568Z" fill="url(#paint1_linear_451_2)"/>
<path d="M24.1207 10.3669L23.9699 11.383H30.7582L34.1147 13.1142L34.3032 11.9852L31.1354 10.3669H24.1207Z" fill="url(#paint2_linear_451_2)"/>
<path fill-rule="evenodd" clip-rule="evenodd" d="M23.819 12.0604L22.8008 17.8938C23.1779 17.9565 24.0604 17.9315 24.5733 17.3293C25.0071 16.8002 25.4713 16.7224 26.1195 16.8401C27.3641 17.0659 30.3057 17.8938 31.1354 18.4207C31.3113 18.5211 31.6935 18.8347 31.8142 19.2863C31.9349 19.7379 32.5433 20.1268 32.8324 20.2648L34.1147 13.8669L30.7582 12.0604H23.819ZM27.3263 14.7325C27.3263 13.5282 28.4326 13.2271 28.9857 13.2271C29.5137 13.2271 30.5697 13.5282 30.5697 14.7325C30.5697 15.9368 29.5137 16.2379 28.9857 16.2379C28.4326 16.2379 27.3263 15.9368 27.3263 14.7325Z" fill="url(#paint3_linear_451_2)"/>
<path fill-rule="evenodd" clip-rule="evenodd" d="M26.5721 18.2325L24.347 23.539C23.995 24.2792 22.846 25.8423 21.066 26.1735L20.1609 29.8617C20.45 30.4011 21.2923 31.6154 22.3482 32.1574C23.3665 32.5714 23.2156 32.609 24.3847 32.5714C24.8876 32.4836 26.1195 32.1724 27.0246 31.6305L27.892 28.3186C27.5526 28.0928 26.8889 27.31 26.9492 25.9853C27.0096 24.6605 27.4521 23.677 27.6658 23.3509L29.3251 19.0229L26.5721 18.2325ZM27.7789 19.5498L27.6281 19.4745L24.4979 26.1735C24.7694 26.3842 25.315 26.4118 25.5538 26.3993L27.7789 19.5498ZM24.1207 30.9531C22.6068 31.0326 22.0465 30.0498 22.0465 29.109C22.0465 28.1681 22.6877 27.3025 24.1207 27.3025C25.5538 27.3025 25.9687 28.4692 25.9687 29.109C25.9687 29.7488 25.5538 30.8778 24.1207 30.9531Z" fill="url(#paint4_linear_451_2)"/>
<path d="M5.12987 20.0885C4.04474 20.3599 2.99477 20.2016 2.60543 20.0885C2.60543 20.7217 2.8315 21.86 2.94454 22.35L1.13599 23.8577C1.37713 24.8528 2.24121 26.7098 2.64311 27.5139H5.05451C5.65736 28.6296 6.78771 29.8131 7.27752 30.2654L6.44861 32.2254C7.23231 33.0999 9.11119 34.3488 9.95267 34.8639L11.5728 33.4693C12.658 34.1628 14.788 34.7634 15.7174 34.977L16.2449 36.937C17.0889 37.1782 19.435 37.138 20.5026 37.0877L21.1054 35.09C23.0948 34.7282 24.7225 34.11 25.2877 33.8462L26.8325 35.2408C28.008 34.698 29.7337 33.4316 30.4496 32.8662L29.9974 30.8308C31.0223 29.8056 32.0069 28.3683 32.3712 27.7777H29.9974L28.6034 29.4739L27.8498 32.4139C26.7647 32.9265 25.137 33.4316 24.4588 33.62C22.8311 33.7407 21.8213 33.1677 21.5199 32.8662C15.4612 34.0724 10.4802 30.4036 8.74697 28.4185H6.33557L6.78771 25.78C5.4313 23.5788 5.11731 21.0685 5.12987 20.0885Z" fill="url(#paint5_linear_451_2)"/>
<path d="M21.4207 3.21107C23.4154 3.51261 25.4505 4.39209 26.2186 4.79414L24.443 6.49029C24.0274 6.30183 22.8412 5.84199 21.4207 5.51029C20.0002 5.1786 17.6806 5.2967 16.6983 5.39722C15.842 5.52286 13.6911 6.01537 11.9382 6.98029C10.1852 7.94521 8.46249 9.54336 7.82025 10.2218C8.00915 10.2846 8.49272 10.5611 8.91584 11.1641C9.44475 11.918 9.40697 12.7472 9.40697 13.4634C9.40697 14.1795 8.68917 16.0641 8.19804 16.6672C7.70692 17.2703 7.29135 17.798 6.15798 18.4387C5.25128 18.9287 4.00457 19.0795 3.47567 19.0418C3.17344 19.0418 2.3423 18.8835 1.4356 18.2503C0.528906 17.617 0.100744 16.529 0 16.0641H4.83571L5.62907 13.6518L4.45792 11.9557H1.24671L2.22896 9.76952H5.2135C5.84819 8.71413 7.0143 7.5708 7.51802 7.13106L6.838 4.86953C7.80514 4.05537 9.48253 3.12312 10.2003 2.75876L11.9382 4.37953C13.3889 3.71614 15.3131 3.32414 16.0939 3.21107L16.6983 0.874149H20.7029L21.4207 3.21107Z" fill="url(#paint6_linear_451_2)"/>
<g filter="url(#filter0_d_451_2)">
<path d="M56.8376 21.6251H51.3538V10.2725H56.3032C57.2193 10.2725 57.8725 10.4844 58.2626 10.9082C58.6528 11.332 58.8479 11.9476 58.8479 12.7549C58.8479 13.5723 58.7249 14.203 58.4789 14.647C58.233 15.0809 57.8979 15.3685 57.4738 15.5098V15.6157C58.7037 15.868 59.3187 16.8671 59.3187 18.6128C59.3187 19.521 59.1151 20.2527 58.708 20.8077C58.3093 21.3526 57.6858 21.6251 56.8376 21.6251ZM55.6034 17.0992H54.4074V18.961H55.578C56.0106 18.961 56.2269 18.6482 56.2269 18.0225C56.2269 17.4069 56.0191 17.0992 55.6034 17.0992ZM55.3744 12.7549H54.4074V14.4502H55.349C55.7391 14.4502 55.9342 14.1677 55.9342 13.6026C55.9342 13.0374 55.7476 12.7549 55.3744 12.7549Z" fill="url(#paint7_linear_451_2)"/>
<path d="M67.0541 17.8409L68.7082 21.6251H65.3492L64.1023 18.2495H63.4406V21.6251H60.387V10.2725H65.1965C67.3849 10.2725 68.4792 11.5995 68.4792 14.2534C68.4792 16.0699 68.0041 17.2657 67.0541 17.8409ZM64.1404 13.1787H63.4406V15.4492H64.1404C64.5137 15.4492 64.7808 15.4038 64.942 15.313C65.1117 15.2222 65.1965 15.0153 65.1965 14.6924V13.9356C65.1965 13.6126 65.1117 13.4058 64.942 13.315C64.7808 13.2241 64.5137 13.1787 64.1404 13.1787Z" fill="url(#paint8_linear_451_2)"/>
<path d="M69.3225 15.9639C69.3225 14.9245 69.3946 14.0314 69.5388 13.2847C69.6915 12.5278 69.9417 11.9072 70.2895 11.4229C70.6457 10.9385 71.1123 10.5802 71.6891 10.3481C72.2659 10.1161 72.9784 10 73.8266 10C74.6833 10 75.3959 10.1161 75.9642 10.3481C76.541 10.5802 77.0033 10.9385 77.3511 11.4229C77.7073 11.9072 77.9575 12.5278 78.1017 13.2847C78.2544 14.0314 78.3308 14.9245 78.3308 15.9639C78.3308 16.9528 78.2629 17.8207 78.1272 18.5674C77.9915 19.3041 77.7497 19.9196 77.4019 20.4141C77.0627 20.9086 76.6004 21.282 76.0151 21.5342C75.4383 21.7764 74.7088 21.8975 73.8266 21.8975C72.9445 21.8975 72.2107 21.7764 71.6255 21.5342C71.0487 21.282 70.5864 20.9086 70.2386 20.4141C69.8993 19.9196 69.6618 19.3041 69.5261 18.5674C69.3904 17.8207 69.3225 16.9528 69.3225 15.9639ZM72.6052 14.0718V18.7945H73.8775C74.3016 18.7945 74.6028 18.739 74.7809 18.628C74.9675 18.5069 75.0608 18.2395 75.0608 17.8257V13.103H73.7757C73.3686 13.103 73.0717 13.1636 72.8851 13.2847C72.6985 13.3957 72.6052 13.6581 72.6052 14.0718Z" fill="url(#paint9_linear_451_2)"/>
<path d="M86.1921 10.2725V13.1787H83.9782V21.6251H80.9246V13.1787H78.7107V10.2725H86.1921Z" fill="url(#paint10_linear_451_2)"/>
<path d="M86.5689 15.9639C86.5689 14.9245 86.641 14.0314 86.7852 13.2847C86.9379 12.5278 87.1881 11.9072 87.5359 11.4229C87.8921 10.9385 88.3586 10.5802 88.9354 10.3481C89.5122 10.1161 90.2248 10 91.073 10C91.9297 10 92.6422 10.1161 93.2106 10.3481C93.7874 10.5802 94.2497 10.9385 94.5974 11.4229C94.9537 11.9072 95.2039 12.5278 95.3481 13.2847C95.5008 14.0314 95.5771 14.9245 95.5771 15.9639C95.5771 16.9528 95.5093 17.8207 95.3736 18.5674C95.2378 19.3041 94.9961 19.9196 94.6483 20.4141C94.309 20.9086 93.8467 21.282 93.2615 21.5342C92.6847 21.7764 91.9552 21.8975 91.073 21.8975C90.1908 21.8975 89.4571 21.7764 88.8718 21.5342C88.295 21.282 87.8327 20.9086 87.485 20.4141C87.1457 19.9196 86.9082 19.3041 86.7724 18.5674C86.6367 17.8207 86.5689 16.9528 86.5689 15.9639ZM89.8515 14.0718V18.7945H91.1239C91.548 18.7945 91.8491 18.739 92.0273 18.628C92.2139 18.5069 92.3072 18.2395 92.3072 17.8257V13.103H91.0221C90.615 13.103 90.3181 13.1636 90.1315 13.2847C89.9449 13.3957 89.8515 13.6581 89.8515 14.0718Z" fill="url(#paint11_linear_451_2)"/>
<path d="M99.6342 16.1153L99.456 21.6251H96.2624L96.8477 10.2725H100.83L102.013 16.0547H102.128L103.311 10.2725H107.306L107.879 21.6251H104.685L104.507 16.1153H104.405L103.235 21.6251H100.907L99.7232 16.1153H99.6342Z" fill="url(#paint12_linear_451_2)"/>
<path d="M108.562 15.9639C108.562 14.9245 108.634 14.0314 108.778 13.2847C108.931 12.5278 109.181 11.9072 109.529 11.4229C109.885 10.9385 110.352 10.5802 110.928 10.3481C111.505 10.1161 112.218 10 113.066 10C113.923 10 114.635 10.1161 115.203 10.3481C115.78 10.5802 116.243 10.9385 116.59 11.4229C116.947 11.9072 117.197 12.5278 117.341 13.2847C117.494 14.0314 117.57 14.9245 117.57 15.9639C117.57 16.9528 117.502 17.8207 117.366 18.5674C117.231 19.3041 116.989 19.9196 116.641 20.4141C116.302 20.9086 115.84 21.282 115.254 21.5342C114.678 21.7764 113.948 21.8975 113.066 21.8975C112.184 21.8975 111.45 21.7764 110.865 21.5342C110.288 21.282 109.826 20.9086 109.478 20.4141C109.139 19.9196 108.901 19.3041 108.765 18.5674C108.63 17.8207 108.562 16.9528 108.562 15.9639ZM111.844 14.0718V18.7945H113.117C113.541 18.7945 113.842 18.739 114.02 18.628C114.207 18.5069 114.3 18.2395 114.3 17.8257V13.103H113.015C112.608 13.103 112.311 13.1636 112.124 13.2847C111.938 13.3957 111.844 13.6581 111.844 14.0718Z" fill="url(#paint13_linear_451_2)"/>
<path d="M125.431 10.2725V13.1787H123.217V21.6251H120.164V13.1787H117.95V10.2725H125.431Z" fill="url(#paint14_linear_451_2)"/>
<path d="M129.32 21.6251H126.266V10.2725H129.32V21.6251Z" fill="url(#paint15_linear_451_2)"/>
<path d="M134.745 17.4776L136.055 10.2725H139.274L136.908 21.6251H132.454L130.088 10.2725H133.307L134.605 17.4776H134.745Z" fill="url(#paint16_linear_451_2)"/>
<path d="M146.141 14.7075V17.3413H143.087V18.7188H146.828V21.6251H140.033V10.2725H146.751L146.37 13.1787H143.087V14.7075H146.141Z" fill="url(#paint17_linear_451_2)"/>
</g>
<path d="M88.0265 27.1118C88.0265 27.4767 87.9366 27.8098 87.7568 28.1112C87.5823 28.4074 87.3444 28.6453 87.043 28.8251C86.7415 29.0049 86.4084 29.0948 86.0436 29.0948H82.855V28.3095H86.0436C86.2656 28.3095 86.4666 28.2567 86.6464 28.1509C86.8262 28.0399 86.9689 27.8944 87.0747 27.7147C87.1804 27.5296 87.2333 27.3286 87.2333 27.1118C87.2333 26.8898 87.1804 26.6888 87.0747 26.509C86.9689 26.3293 86.8262 26.1865 86.6464 26.0807C86.4666 25.975 86.2656 25.9221 86.0436 25.9221H82.4108V30.6811H81.6177V25.1289H86.0436C86.4084 25.1289 86.7415 25.2188 87.043 25.3986C87.3444 25.5731 87.5823 25.8111 87.7568 26.1125C87.9366 26.4139 88.0265 26.747 88.0265 27.1118Z" fill="url(#paint18_linear_451_2)"/>
<path d="M95.1736 30.6811H94.3804V29.0948H89.9466V28.3016H94.3804V25.9221H91.533C91.1734 25.9221 90.8429 26.012 90.5415 26.1918C90.2401 26.3663 89.9995 26.6042 89.8197 26.9056C89.6452 27.207 89.558 27.5402 89.558 27.905V30.6811H88.7648V27.905C88.7648 27.5243 88.8362 27.1674 88.979 26.8342C89.1217 26.4958 89.32 26.1997 89.5738 25.9459C89.8277 25.6868 90.1211 25.4859 90.4543 25.3431C90.7927 25.2003 91.1522 25.1289 91.533 25.1289H95.1736V30.6811Z" fill="url(#paint19_linear_451_2)"/>
<path d="M102.914 30.6811H101.843L100.177 29.0948H97.7424V28.3095H100.931C101.153 28.3095 101.354 28.2567 101.534 28.1509C101.714 28.0399 101.856 27.8944 101.962 27.7147C102.068 27.5296 102.121 27.3286 102.121 27.1118C102.121 26.8898 102.068 26.6888 101.962 26.509C101.856 26.3293 101.714 26.1865 101.534 26.0807C101.354 25.975 101.153 25.9221 100.931 25.9221H97.2983V30.6811H96.5051V25.1289H100.931C101.296 25.1289 101.629 25.2188 101.93 25.3986C102.232 25.5731 102.47 25.8111 102.644 26.1125C102.824 26.4139 102.914 26.747 102.914 27.1118C102.914 27.4397 102.84 27.7437 102.692 28.024C102.549 28.3042 102.351 28.5369 102.097 28.722C101.848 28.9018 101.566 29.0181 101.248 29.071L102.914 30.6811Z" fill="url(#paint20_linear_451_2)"/>
<path d="M106.878 30.6811H106.084V25.9221H103.277V25.1289H109.685V25.9221H106.878V30.6811Z" fill="url(#paint21_linear_451_2)"/>
<path d="M116.563 29.0948C116.563 29.3856 116.492 29.6526 116.349 29.8959C116.206 30.1338 116.016 30.3242 115.778 30.4669C115.54 30.6097 115.273 30.6811 114.977 30.6811H110.154V29.8879H114.977C115.199 29.8879 115.387 29.8113 115.54 29.6579C115.693 29.4993 115.77 29.3116 115.77 29.0948C115.77 28.878 115.693 28.6929 115.54 28.5395C115.387 28.3809 115.199 28.3016 114.977 28.3016H111.741C111.45 28.3016 111.183 28.2302 110.94 28.0874C110.702 27.9447 110.511 27.7543 110.369 27.5164C110.226 27.2731 110.154 27.0061 110.154 26.7153C110.154 26.4244 110.226 26.16 110.369 25.9221C110.511 25.6789 110.702 25.4859 110.94 25.3431C111.183 25.2003 111.45 25.1289 111.741 25.1289H116.167V25.9221H111.741C111.524 25.9221 111.336 26.0014 111.178 26.16C111.024 26.3134 110.948 26.4985 110.948 26.7153C110.948 26.9321 111.024 27.1198 111.178 27.2784C111.336 27.4318 111.524 27.5084 111.741 27.5084H114.977C115.273 27.5084 115.54 27.5798 115.778 27.7226C116.016 27.8654 116.206 28.0584 116.349 28.3016C116.492 28.5395 116.563 28.8039 116.563 29.0948Z" fill="url(#paint22_linear_451_2)"/>
<defs>
<filter id="filter0_d_451_2" x="51.3538" y="9" width="95.4741" height="12.8975" filterUnits="userSpaceOnUse" color-interpolation-filters="sRGB">
<feFlood flood-opacity="0" result="BackgroundImageFix"/>
<feColorMatrix in="SourceAlpha" type="matrix" values="0 0 0 0 0 0 0 0 0 0 0 0 0 0 0 0 0 0 127 0" result="hardAlpha"/>
<feOffset dy="-1"/>
<feComposite in2="hardAlpha" operator="out"/>
<feColorMatrix type="matrix" values="0 0 0 0 0.23753 0 0 0 0 0.23753 0 0 0 0 0.23753 0 0 0 1 0"/>
<feBlend mode="normal" in2="BackgroundImageFix" result="effect1_dropShadow_451_2"/>
<feBlend mode="normal" in="SourceGraphic" in2="effect1_dropShadow_451_2" result="shape"/>
</filter>
<linearGradient id="paint0_linear_451_2" x1="14.9076" y1="10.3394" x2="14.9076" y2="27.2821" gradientUnits="userSpaceOnUse">
<stop stop-color="#DEE0E0"/>
<stop offset="1" stop-color="#6F7578"/>
</linearGradient>
<linearGradient id="paint1_linear_451_2" x1="20.1609" y1="20.6091" x2="34.6427" y2="20.6091" gradientUnits="userSpaceOnUse">
<stop stop-color="#537185"/>
<stop offset="1" stop-color="#324553"/>
</linearGradient>
<linearGradient id="paint2_linear_451_2" x1="34.6427" y1="20.6091" x2="20.1609" y2="20.6091" gradientUnits="userSpaceOnUse">
<stop stop-color="#324553"/>
<stop offset="1" stop-color="#435E71"/>
</linearGradient>
<linearGradient id="paint3_linear_451_2" x1="27.4018" y1="32.5826" x2="27.4018" y2="8.63568" gradientUnits="userSpaceOnUse">
<stop offset="0.610577" stop-color="#5D788E"/>
<stop offset="0.716346" stop-color="#456477"/>
<stop offset="0.836538" stop-color="#324553"/>
</linearGradient>
<linearGradient id="paint4_linear_451_2" x1="27.4491" y1="17.8642" x2="27.4018" y2="32.5826" gradientUnits="userSpaceOnUse">
<stop stop-color="#5A7389"/>
<stop offset="0.423077" stop-color="#6B8FA9"/>
<stop offset="0.701923" stop-color="#2F4557"/>
</linearGradient>
<linearGradient id="paint5_linear_451_2" x1="16.7536" y1="20.0885" x2="16.7536" y2="37.1259" gradientUnits="userSpaceOnUse">
<stop stop-color="#A2A1A5"/>
<stop offset="1" stop-color="#4D5153"/>
</linearGradient>
<linearGradient id="paint6_linear_451_2" x1="13.1093" y1="0.874149" x2="13.1093" y2="19.0473" gradientUnits="userSpaceOnUse">
<stop stop-color="#EAEAEA"/>
<stop offset="1" stop-color="#A7ABAD"/>
</linearGradient>
<linearGradient id="paint7_linear_451_2" x1="98.9747" y1="7.65265" x2="98.9747" y2="26.6707" gradientUnits="userSpaceOnUse">
<stop offset="0.105769" stop-color="#E8E8E8"/>
<stop offset="1" stop-color="#575757"/>
</linearGradient>
<linearGradient id="paint8_linear_451_2" x1="98.9747" y1="7.65265" x2="98.9747" y2="26.6707" gradientUnits="userSpaceOnUse">
<stop offset="0.105769" stop-color="#E8E8E8"/>
<stop offset="1" stop-color="#575757"/>
</linearGradient>
<linearGradient id="paint9_linear_451_2" x1="98.9747" y1="7.65265" x2="98.9747" y2="26.6707" gradientUnits="userSpaceOnUse">
<stop offset="0.105769" stop-color="#E8E8E8"/>
<stop offset="1" stop-color="#575757"/>
</linearGradient>
<linearGradient id="paint10_linear_451_2" x1="98.9747" y1="7.65265" x2="98.9747" y2="26.6707" gradientUnits="userSpaceOnUse">
<stop offset="0.105769" stop-color="#E8E8E8"/>
<stop offset="1" stop-color="#575757"/>
</linearGradient>
<linearGradient id="paint11_linear_451_2" x1="98.9747" y1="7.65265" x2="98.9747" y2="26.6707" gradientUnits="userSpaceOnUse">
<stop offset="0.105769" stop-color="#E8E8E8"/>
<stop offset="1" stop-color="#575757"/>
</linearGradient>
<linearGradient id="paint12_linear_451_2" x1="98.9747" y1="7.65265" x2="98.9747" y2="26.6707" gradientUnits="userSpaceOnUse">
<stop offset="0.105769" stop-color="#E8E8E8"/>
<stop offset="1" stop-color="#575757"/>
</linearGradient>
<linearGradient id="paint13_linear_451_2" x1="98.9747" y1="7.65265" x2="98.9747" y2="26.6707" gradientUnits="userSpaceOnUse">
<stop offset="0.105769" stop-color="#E8E8E8"/>
<stop offset="1" stop-color="#575757"/>
</linearGradient>
<linearGradient id="paint14_linear_451_2" x1="98.9747" y1="7.65265" x2="98.9747" y2="26.6707" gradientUnits="userSpaceOnUse">
<stop offset="0.105769" stop-color="#E8E8E8"/>
<stop offset="1" stop-color="#575757"/>
</linearGradient>
<linearGradient id="paint15_linear_451_2" x1="98.9747" y1="7.65265" x2="98.9747" y2="26.6707" gradientUnits="userSpaceOnUse">
<stop offset="0.105769" stop-color="#E8E8E8"/>
<stop offset="1" stop-color="#575757"/>
</linearGradient>
<linearGradient id="paint16_linear_451_2" x1="98.9747" y1="7.65265" x2="98.9747" y2="26.6707" gradientUnits="userSpaceOnUse">
<stop offset="0.105769" stop-color="#E8E8E8"/>
<stop offset="1" stop-color="#575757"/>
</linearGradient>
<linearGradient id="paint17_linear_451_2" x1="98.9747" y1="7.65265" x2="98.9747" y2="26.6707" gradientUnits="userSpaceOnUse">
<stop offset="0.105769" stop-color="#E8E8E8"/>
<stop offset="1" stop-color="#575757"/>
</linearGradient>
<linearGradient id="paint18_linear_451_2" x1="98.8868" y1="23.1901" x2="98.8868" y2="32.7375" gradientUnits="userSpaceOnUse">
<stop stop-color="#E3E3E3"/>
<stop offset="1" stop-color="#1E1E1E"/>
</linearGradient>
<linearGradient id="paint19_linear_451_2" x1="98.8868" y1="23.1901" x2="98.8868" y2="32.7375" gradientUnits="userSpaceOnUse">
<stop stop-color="#E3E3E3"/>
<stop offset="1" stop-color="#1E1E1E"/>
</linearGradient>
<linearGradient id="paint20_linear_451_2" x1="98.8868" y1="23.1901" x2="98.8868" y2="32.7375" gradientUnits="userSpaceOnUse">
<stop stop-color="#E3E3E3"/>
<stop offset="1" stop-color="#1E1E1E"/>
</linearGradient>
<linearGradient id="paint21_linear_451_2" x1="98.8868" y1="23.1901" x2="98.8868" y2="32.7375" gradientUnits="userSpaceOnUse">
<stop stop-color="#E3E3E3"/>
<stop offset="1" stop-color="#1E1E1E"/>
</linearGradient>
<linearGradient id="paint22_linear_451_2" x1="98.8868" y1="23.1901" x2="98.8868" y2="32.7375" gradientUnits="userSpaceOnUse">
<stop stop-color="#E3E3E3"/>
<stop offset="1" stop-color="#1E1E1E"/>
</linearGradient>
</defs>
</svg>
