<svg width="104" height="109" viewBox="0 0 104 109" fill="none" xmlns="http://www.w3.org/2000/svg">
<path fill-rule="evenodd" clip-rule="evenodd" d="M81.0663 81.0404C79.8304 78.7129 78.6298 76.4618 77.3939 74.1344C74.4488 68.6401 71.5764 63.1459 68.6313 57.6516C67.6859 55.9346 66.7769 54.1032 65.8315 52.3863C65.3947 51.4706 64.7404 50.6693 64.4858 49.7536C64.4858 49.7536 64.4131 49.7536 64.3404 49.7536C63.6859 50.6693 63.0677 51.5469 62.4133 52.3863V52.4626C62.4133 52.4626 62.4133 52.4626 62.3405 52.4626C59.759 39.4518 57.1774 26.3648 54.5958 13.2396C53.8685 9.92022 53.2505 6.52442 52.596 3.16682C52.4505 2.55632 52.1596 0.38154 51.796 0C48.3417 17.4748 44.8511 34.9878 41.3969 52.4626H41.3242C41.3242 52.2336 39.4698 49.9062 39.2517 49.7536C39.2517 50.0588 38.3789 51.4705 38.1608 51.7758C36.9973 54.0269 35.7974 56.278 34.6339 58.491C30.3433 66.6179 26.0892 74.7449 21.7986 82.7955H21.7258V82.9481C26.38 82.9481 31.1069 82.9481 35.7974 82.9481C36.8882 82.9481 37.9427 82.9481 39.0334 82.9481C39.397 82.9481 40.0515 83.0244 40.3424 82.8718C40.706 82.6429 41.1424 81.5745 41.3605 81.1548C42.3059 79.4379 43.2149 77.6828 44.1603 75.8895C44.5239 75.279 44.8148 74.4778 45.2512 73.8673C45.2512 73.791 45.2512 73.791 45.3238 73.791V73.8673C45.4693 73.8673 45.4693 74.0199 45.542 74.0962C47.1782 76.3474 48.7781 78.5985 50.4144 80.9259C50.6325 81.3075 51.5051 82.6429 51.8324 82.7955C52.0505 82.9481 52.4869 82.2613 52.6323 82.1087C54.5594 79.3234 56.5229 76.6144 58.45 73.8292H58.5227C58.5227 73.7528 58.45 73.7528 58.5955 73.7528C59.25 75.0501 59.9044 76.3092 60.5953 77.5301C61.3225 78.9419 62.0133 80.3917 62.8133 81.8035C62.9587 82.1087 63.1042 82.7192 63.4677 82.8718C63.8313 83.1007 64.4132 82.9481 64.8131 82.9481C65.7589 82.9481 66.7405 82.9481 67.7586 82.9481C72.4854 82.9481 77.2849 82.9481 82.048 82.9481C82.048 82.7192 81.248 81.3838 81.1027 81.0785L81.0663 81.0404ZM65.8678 78.5603C65.8678 78.5603 65.7952 78.5603 65.7952 78.484C65.5763 78.3314 65.431 77.9498 65.2857 77.7209C64.8494 76.9578 64.4858 76.1566 64.0495 75.3935C62.8859 73.2187 61.7588 70.9676 60.5225 68.7546C60.2316 68.1441 59.868 67.4573 59.5044 66.885C59.359 66.5798 59.1408 66.2745 59.0682 65.893H58.9227C58.9227 66.0456 57.7592 67.5336 57.5774 67.7626C56.232 69.7085 54.8503 71.6162 53.5049 73.5621C52.9959 74.2489 52.2687 75.0501 51.9415 75.8132H51.796C51.796 75.6606 51.7232 75.5843 51.6506 75.508C49.3598 72.3411 47.0691 69.098 44.7785 65.9693V65.893H44.633C44.633 66.1219 44.4149 66.3509 44.3421 66.5798C43.9785 67.3429 43.5421 67.9915 43.1786 68.7546C41.9423 71.0057 40.8151 73.2568 39.5789 75.5461C39.1426 76.4618 38.6335 77.6446 38.0154 78.484C38.0154 78.484 37.9427 78.484 37.8699 78.5603C37.3609 78.7893 35.9428 78.6366 35.2884 78.6366C33.1431 78.6366 30.9251 78.6366 28.7071 78.6366C28.7071 78.5603 28.6344 78.5603 28.7798 78.5603C28.7798 78.2551 29.2161 77.5683 29.3615 77.3394C30.0888 75.9277 30.7797 74.5541 31.5068 73.2187C33.5067 69.4414 35.5065 65.6259 37.5427 61.8486C38.0517 60.9329 38.5607 60.0553 38.9608 59.1396C39.2517 58.6055 39.4698 58.0713 39.8334 57.6516C39.8334 57.499 39.8334 57.5753 39.9061 57.5753C40.1243 57.8805 40.3424 58.2621 40.6333 58.5673C41.2151 59.4067 41.7969 60.1316 42.3423 60.971C42.7059 61.4289 43.2149 62.0394 43.4331 62.5354H43.5786C46.3783 48.7616 49.1054 34.9114 51.8324 21.0613C52.1959 21.4429 52.3414 22.7783 52.4142 23.3124C52.9959 26.2503 53.6504 29.1883 54.1958 32.1262C56.1956 42.2753 58.1954 52.4626 60.2317 62.5354H60.3771C60.3771 62.3828 63.5404 58.0331 63.9041 57.6516C63.9041 57.499 63.9041 57.5753 63.9768 57.5753C66.7769 62.7643 69.5766 68.0297 72.3038 73.295C73.1755 74.8593 74.0119 76.4618 74.812 78.0262C74.8847 78.1788 75.0299 78.4077 74.9573 78.5603C74.812 78.6366 72.7397 78.6366 70.6673 78.7129L65.9405 78.5603H65.8678Z" fill="#7B7B7B"/>
<path fill-rule="evenodd" clip-rule="evenodd" d="M13.6539 85.8099C11.7996 85.5047 9.65429 85.6573 7.54532 85.6573H0.382324V101.225H7.32719C11.545 101.225 15.6538 101.454 18.599 98.9736C19.3988 98.2866 20.017 97.5616 20.4534 96.6456C20.817 95.8826 21.1079 95.0816 21.1805 94.2416C21.3987 89.053 17.9445 86.4967 13.6539 85.8099ZM13.7994 96.0356C13.2176 96.7226 12.5631 96.6456 11.945 97.1036C11.7996 97.1036 11.5813 97.1036 11.436 97.1796H6.41815V89.7398C8.49069 89.7398 10.9269 89.5109 12.7449 90.1214C15.0356 90.8846 15.3265 94.3186 13.8357 96.0736L13.7994 96.0356Z" fill="#7B7B7B"/>
<path fill-rule="evenodd" clip-rule="evenodd" d="M22.4168 85.6572H40.4153V89.7397H28.5254V91.5326H38.3428C38.3428 92.8306 38.3428 94.0896 38.3428 95.3866C35.034 95.3866 31.7616 95.3866 28.5254 95.3866V97.1796H40.4153V101.263H22.4168V85.6572Z" fill="#7B7B7B"/>
<path fill-rule="evenodd" clip-rule="evenodd" d="M41.5423 85.6572H47.7236V95.4246C47.7964 95.8066 47.9418 96.1876 48.16 96.4936C49.1781 97.6376 51.2507 97.6376 52.8141 97.6376C54.3776 97.6376 53.105 97.5616 53.2505 97.5616C53.3958 97.5616 53.5413 97.4856 53.6868 97.4856C53.905 97.4086 54.1231 97.3326 54.3412 97.2566C54.8503 97.1036 55.3593 96.8746 55.6866 96.3406C55.9048 96.1116 56.0502 95.7296 56.0502 95.4246C56.0502 92.8686 56.0502 90.3121 56.1229 87.7557C56.1229 87.2979 56.1229 85.6572 56.1229 85.6572H62.2314C62.2314 87.9846 62.2314 90.2358 62.2314 92.5636C62.2314 93.8606 62.3042 95.1956 62.0133 96.3406C61.8679 97.1036 61.5043 97.7526 61.068 98.3626C58.6318 101.759 51.9052 101.988 47.7964 101.225C46.5601 100.996 45.3602 100.462 44.3421 99.8886C43.6149 99.5076 43.0331 98.8966 42.5604 98.2486C41.3242 96.3786 41.5423 93.8226 41.5423 91.2656V85.6572Z" fill="#7B7B7B"/>
<path fill-rule="evenodd" clip-rule="evenodd" d="M63.3588 85.6572H81.3569V89.7397H75.6121V101.263H69.1035C69.1035 97.4086 69.1035 93.5936 69.1035 89.7397H63.3588V85.6572Z" fill="#7B7B7B"/>
<path fill-rule="evenodd" clip-rule="evenodd" d="M82.5575 85.6573H103.428C103.428 86.573 103.428 87.5268 103.428 88.4426C103.428 88.8241 103.501 89.4346 103.283 89.7398C103.138 90.1214 101.792 90.9606 101.429 91.2276C98.7741 93.0976 96.0469 95.0816 93.3924 96.9506C93.3924 97.0276 93.3198 97.0276 93.3198 97.0276C93.3198 97.0276 93.3198 97.1036 93.3198 97.1796H103.428C103.428 98.5536 103.428 99.8886 103.428 101.263H82.5575C82.5575 100.271 82.5575 99.2406 82.5575 98.2486C82.5575 97.8666 82.5575 97.4086 82.7028 97.1796C82.8481 96.8746 83.1387 96.7226 83.3566 96.5696C83.8661 96.1876 84.3756 95.8066 84.8478 95.4246C87.4297 93.6316 89.9379 91.7236 92.4471 89.9306C92.4958 89.8797 92.5446 89.8543 92.5924 89.8543C92.5924 89.778 92.5924 89.778 92.5924 89.7017H82.5575C82.5575 88.3663 82.5575 86.9927 82.5575 85.6191V85.6573Z" fill="#7B7B7B"/>
<path fill-rule="evenodd" clip-rule="evenodd" d="M0.382324 103.933H103.428C103.428 105.307 103.428 106.718 103.428 108.13H0.382324V103.933Z" fill="#7B7B7B"/>
</svg>
