<svg width="88" height="91" viewBox="0 0 88 91" fill="none" xmlns="http://www.w3.org/2000/svg">
<path fill-rule="evenodd" clip-rule="evenodd" d="M72.6939 0.0318003C71.0443 1.0961 69.3263 3.1056 70.649 5.3375C72.6483 8.7211 76.8523 4.4558 77.681 5.8617C78.0462 6.4812 77.6275 6.9737 77.1486 7.2914C76.8446 7.49 76.5177 7.5614 76.2212 7.5217C75.902 7.4741 75.6207 7.2834 75.6739 7.2755L72.6787 9.2135C73.9786 11.1118 76.3353 10.4367 78.1523 9.2612C81.0563 7.3788 81.6948 5.266 80.6156 3.4551C78.6847 0.190599 74.1535 4.2493 73.4313 3.0341C73.1728 2.6052 73.4161 2.1922 73.9634 1.8427C74.2067 1.6838 74.4728 1.6044 74.7313 1.6521C74.9898 1.6918 75.2102 1.8268 75.2102 1.8824L78.0682 0H87.1299V33.0178L47.1739 33.0814C40.6666 33.0814 35.3984 38.5936 35.3984 45.3846C35.3984 52.1756 40.6742 57.6958 47.1739 57.6958H87.1299V90.6656L43.791 90.7696C19.799 90.7696 0.353027 70.4518 0.353027 45.3846C0.353027 20.3174 19.799 0.00790024 43.7834 0.00790024L72.6939 0.0318003Z" fill="#7B7B7B"/>
<path fill-rule="evenodd" clip-rule="evenodd" d="M27.3554 41.7553L24.4362 43.6456L23.6912 43.034C23.4479 44.2413 23.0222 44.9006 21.7223 45.7425C19.9966 46.8545 18.1873 46.4176 16.7049 43.9236L13.5577 38.6099L16.7049 36.5766L19.4949 41.2866C20.2018 42.486 20.81 42.621 21.5626 42.1365C22.4748 41.5487 22.3152 40.6115 21.517 39.2612L19.0312 35.0675L22.1784 33.0342L27.3477 41.7553H27.3554Z" fill="white"/>
<path fill-rule="evenodd" clip-rule="evenodd" d="M23.6077 32.1126L26.4965 30.2461L27.2491 30.8736C27.2491 29.9522 27.9408 28.9832 28.8607 28.3716C30.2747 27.4344 31.4682 27.6091 32.3956 28.2922C32.4565 26.799 33.0266 25.679 34.1897 24.9245C36.5083 23.4233 38.082 24.3923 39.4884 26.7672L42.5443 31.9299L39.3971 33.9633L36.7668 29.5154C36.0067 28.2366 35.4745 27.8633 34.6459 28.4034C33.726 28.9991 34.0605 29.9999 34.6839 31.0483L37.2381 35.3612L34.0909 37.3945L31.4606 32.9466C30.7004 31.6678 30.1682 31.2945 29.3397 31.8346C28.4198 32.4303 28.7543 33.4311 29.3776 34.4796L31.9319 38.7924L28.7847 40.8258L23.6153 32.1047L23.6077 32.1126Z" fill="white"/>
<path fill-rule="evenodd" clip-rule="evenodd" d="M59.3144 21.0963L54.1451 12.3673L57.2924 10.334L62.4617 19.063L59.3144 21.0963Z" fill="white"/>
<path fill-rule="evenodd" clip-rule="evenodd" d="M52.024 8.7922L55.1713 6.751L56.6308 9.2211L53.4835 11.2545L52.024 8.7922Z" fill="white"/>
<path fill-rule="evenodd" clip-rule="evenodd" d="M58.9722 9.2538L61.8458 7.3952L62.7656 8.0465C62.8341 7.141 63.1762 6.1879 64.3773 5.4095C66.4679 4.0592 68.2467 4.7741 69.6683 7.1728L72.7624 12.3991L69.6151 14.4324L66.886 9.8177C66.3766 8.9519 65.7077 8.3245 64.8106 8.8963C63.8451 9.5238 63.9896 10.3737 64.6509 11.4857L67.2812 15.9336L64.134 17.9669L58.9647 9.2458L58.9722 9.2538Z" fill="white"/>
<path fill-rule="evenodd" clip-rule="evenodd" d="M38.7432 22.3273L41.6319 20.4608L42.3845 21.0883C42.3845 20.1669 43.0763 19.1979 43.9961 18.5863C45.4102 17.6491 46.6037 17.8238 47.5311 18.5148C47.5919 17.0216 48.1621 15.9017 49.3252 15.1471C51.6438 13.646 53.2174 14.615 54.6238 16.9898L57.6798 22.1526L54.5325 24.1859L51.9022 19.738C51.142 18.4592 50.6099 18.0859 49.7813 18.626C48.8615 19.2217 49.1959 20.2225 49.8193 21.271L52.3736 25.5839L49.2263 27.6172L46.596 23.1693C45.8358 21.8905 45.3037 21.5172 44.4675 22.0573C43.5476 22.653 43.8821 23.6538 44.5055 24.7022L47.0597 29.0151L43.9125 31.0484L38.7432 22.3273Z" fill="white"/>
<path fill-rule="evenodd" clip-rule="evenodd" d="M13.3905 50.786C9.99998 52.9782 5.54528 51.8821 3.44712 48.3396C1.34896 44.7972 2.39804 40.1428 5.78846 37.9506L9.88604 35.3056L11.8702 38.6575L8.32757 40.945C6.70831 41.9934 6.20666 44.2174 7.21005 45.9092C8.21353 47.601 10.3421 48.1252 11.9614 47.0767L15.5039 44.7892L17.488 48.1411L13.3905 50.786Z" fill="white"/>
</svg>
