<svg width="146" height="26" viewBox="0 0 146 26" fill="none" xmlns="http://www.w3.org/2000/svg">
<path d="M63.6352 25.8251C64.149 25.8251 67.2732 25.8077 69.7953 25.6249C72.8432 25.4037 74.4142 24.3163 75.5653 22.7584C76.993 20.8302 76.9837 17.2145 76.9818 14.4009C76.9801 11.2588 77.0219 2.15521 77.0089 1.34345C76.9987 0.528661 76.7023 0.10528 75.8069 0.112972C74.9103 0.118855 72.3825 0.112972 71.5149 0.120816L69.969 0.112972C69.0727 0.105431 68.7772 0.528661 68.7643 1.34345V2.21615C68.7772 3.17981 68.7521 12.3645 68.7483 14.5179V15.4718C68.7243 17.4552 68.492 19.3843 65.7961 19.683C64.6329 19.8106 64.0999 19.8676 62.6588 19.8676C61.2163 19.8676 60.6848 19.8106 59.5059 19.683C56.8108 19.3881 56.6474 17.4552 56.6224 15.4718V14.5179C56.6186 12.3645 56.5935 3.17981 56.6047 2.21615V1.34345C56.5935 0.528661 56.2964 0.10528 55.4016 0.112972L53.8539 0.120816C52.9862 0.112972 50.4604 0.118855 49.5629 0.112972C48.6685 0.105431 48.372 0.528661 48.3619 1.34345C48.3488 2.15521 48.358 11.2588 48.3545 14.4009C48.3527 17.2145 48.3451 20.8302 49.7711 22.7584C50.9193 24.3165 52.4688 25.4037 55.5066 25.6249C58.0289 25.8096 61.0602 25.8251 61.7319 25.8251H63.6352ZM8.8503 24.6438C8.83262 25.5281 8.58181 25.8771 7.71138 25.8984C6.83805 25.9245 2.56565 25.91 1.78728 25.9032C1.01239 25.8945 0.534988 25.6498 0.533104 24.785C0.527594 23.9209 0.527594 2.19458 0.52194 1.36924C0.520056 0.547817 0.892641 0.158372 1.71102 0.184315C2.52766 0.204677 6.72382 0.161238 7.83766 0.181449C8.68025 0.174662 8.87813 0.680242 8.88089 1.58296C8.90133 2.79685 8.87075 23.7643 8.8503 24.6438ZM125.264 15.8547C125.28 17.894 125.754 19.2587 128 19.6222C129.798 19.8154 132.232 19.8551 134.098 19.6579C135.808 19.4626 137.124 18.7416 137.201 16.7284C137.288 15.0283 137.295 14.7354 137.301 12.9425C137.31 8.5913 137.264 2.2712 137.279 1.65084L137.285 1.38688C137.272 0.423381 137.695 0.016441 138.479 0.016441L138.948 0C139.84 0.007844 143.433 0.016592 144.303 0.016592C145.086 0.016592 145.51 0.423382 145.496 1.38704L145.485 1.68764C145.502 2.59609 145.475 12.2217 145.466 15.0621C145.416 16.4887 145.319 19.8116 144.262 21.9186C143.343 23.7472 141.697 25.1534 138.898 25.4424C133.518 26.0001 128.613 25.7682 124.836 25.6038C122.029 25.453 120.22 24.7987 118.719 23.0638C117.021 21.0748 116.932 17.6756 116.957 13.7768C116.924 5.17378 116.899 2.69474 116.913 1.87407V1.38688C116.899 0.423381 117.322 0.016441 118.107 0.016441L118.572 0C119.473 0.007844 123.2 0.016592 124.072 0.016592C124.853 0.016592 125.28 0.423382 125.264 1.38704C125.251 2.35446 125.26 13.3718 125.264 15.7986M83.4179 0.09261C84.2577 0.066668 99.2776 0.085069 103.974 0.112067C108.132 0.160333 109.669 0.776022 110.798 2.34767C112.1 4.16367 112.236 6.4388 111.182 8.31091C110.427 9.6533 109.03 10.8248 106.934 11.889C105.27 12.7783 102.357 14.1274 99.5099 15.4312C95.6964 17.1836 92.2433 18.7009 91.6628 19.0171C90.8766 19.4462 91.174 20.0889 91.7983 20.0792C93.4278 20.0588 109.161 19.9255 110.001 19.9235C110.845 19.9226 111.118 20.2388 111.118 21.181C111.116 22.1668 111.126 23.8524 111.128 24.6169C111.109 25.5361 110.827 25.7874 109.989 25.7961C109.033 25.8067 92.2739 25.8115 91.082 25.8172C88.4325 25.8106 85.7042 25.8212 84.0767 25.0007C82.0441 23.9732 81.3565 21.9136 81.3546 20.4697C81.4513 16.9507 83.3363 15.8237 86.7326 14.1864C90.5089 12.4031 101.657 7.38602 102.321 7.06505C103.144 6.66595 102.889 5.88103 102.125 5.90727C101.538 5.91979 84.463 6.01059 83.6196 6.00984C82.7787 6.00682 82.2438 5.86564 82.2438 5.01707C82.2455 4.17242 82.2363 2.05386 82.2363 1.18206C82.2363 0.306337 82.5744 0.120665 83.4179 0.09261ZM39.3182 13.3259C35.541 11.6936 24.5196 8.06641 23.0574 7.31347C22.3533 6.99823 22.4007 6.06278 23.3537 6.06278C24.9814 6.08782 41.1363 6.1207 41.9799 6.12658C42.8223 6.12854 43.1774 5.78721 43.1774 4.84301C43.1811 3.85809 43.1745 2.05084 43.1634 1.25732C43.1522 0.45038 42.8725 0.144798 42.1758 0.142837C41.4792 0.142837 22.8214 0.166065 22.8214 0.166065C17.6145 0.153546 16.2786 0.950832 14.8034 2.79398C12.8802 5.19867 13.4914 8.45405 14.595 10.1328C15.8381 12.0107 17.8903 12.8408 21.1556 14.0297C25.1113 15.3683 34.427 18.7772 34.427 18.7772C35.2808 19.1609 35.2157 20.0917 34.1615 20.0917C34.1615 20.0917 16.3908 19.9254 15.5492 19.9235C14.7057 19.9226 14.2941 20.3507 14.2905 21.1984C14.2905 22.046 14.2829 23.5991 14.2793 24.4804C14.2793 25.3522 14.5226 25.85 15.3662 25.881C16.2042 25.9111 31.484 25.851 36.1828 25.8414C39.7576 25.8317 43.2106 24.6825 43.9194 20.575C44.344 17.0356 42.904 14.8415 39.3182 13.3259Z" fill="#7B7B7B"/>
</svg>
