<svg width="137" height="89" viewBox="0 0 137 89" fill="none" xmlns="http://www.w3.org/2000/svg">
<path d="M87.7113 81.7968H92.7619V83.0168H87.7113V81.7968ZM3.70419 74.3978L3.25274 86.6426V86.8551C3.25274 87.8917 3.54533 88.1056 5.12918 88.2226V88.79C3.97634 88.6974 3.52255 88.6736 2.89065 88.6736C2.25699 88.6736 1.80497 88.6974 0.629344 88.79V88.2226C2.21145 88.1056 2.43862 87.9162 2.4836 86.6426L2.9584 75.0594V74.92C2.9584 73.8329 2.64128 73.5976 1.08254 73.5038V72.9127C1.96265 72.984 2.30197 73.0078 2.93562 73.0078C3.65342 73.0145 4.37095 72.9756 5.08422 72.8913L9.28796 84.8266L13.56 72.8913C14.5791 72.9839 15.0533 73.0078 15.732 73.0078C16.295 73.0078 16.6582 72.984 17.5167 72.9127V73.5038C15.9802 73.5976 15.6392 73.8328 15.6392 74.8943V75.0594L15.8885 86.6426C15.913 87.9162 16.1151 88.1037 17.7434 88.2226V88.79C16.3195 88.6486 15.7758 88.5999 14.9173 88.5999C14.057 88.5999 13.5144 88.6462 12.0907 88.79V88.2226C13.6272 88.1293 13.9665 87.8686 13.9665 86.762V86.6456L13.765 74.4246L10.0332 84.9447L9.76276 85.7242L9.44622 86.5956L9.15071 87.495L8.90251 88.2726H8.5632L8.31558 87.5182L7.68191 85.6767L7.41035 84.8516L3.70419 74.3978ZM20.6797 82.0173C20.9064 79.305 21.7643 77.9151 23.2115 77.9151C24.6814 77.9151 25.4272 79.2355 25.5621 82.0173H20.6797ZM23.6197 88.1977C21.5622 88.1977 20.6564 86.5462 20.636 82.8661H27.3732C27.327 79.2337 25.9026 77.299 23.2342 77.299C20.5233 77.299 18.8267 79.5877 18.8267 83.2208C18.8267 86.8533 20.5238 88.9759 23.4387 88.9759C25.6544 88.9759 27.1022 87.5358 27.3942 85.1068H26.489C26.218 87.1117 25.2234 88.1977 23.6197 88.1977ZM28.7181 78.1716V77.7481C30.0059 77.6305 30.7757 77.4891 31.7019 77.2051C31.8152 78.079 31.8601 78.455 31.9051 79.1637V79.4239C32.4039 78.079 33.3739 77.2996 34.5507 77.2996C35.6802 77.2996 36.5177 78.0789 36.5177 79.2123C36.5177 79.8967 36.1334 80.3439 35.5681 80.3439C35.0483 80.3439 34.6418 80.0131 34.6418 79.5426C34.6418 79.4957 34.6652 79.4032 34.6856 79.3051L34.7306 79.0704V78.8559C34.7306 78.5257 34.4591 78.2904 34.052 78.2904C32.8781 78.2904 32.1324 79.7761 32.1324 82.1118V87.0411C32.1324 88.0575 32.3572 88.2457 33.7372 88.3158V88.7882C32.4921 88.6718 32.0178 88.6456 31.2265 88.6456C30.413 88.6456 29.9388 88.6718 28.696 88.7882V88.3158C30.0737 88.2457 30.3225 88.0575 30.3225 87.0411V79.3299C30.3009 78.3147 30.1864 78.1984 29.0125 78.1734L28.7181 78.1716ZM45.1664 77.0888V80.982H44.6676C44.2606 78.9278 43.4249 77.9376 42.0466 77.9376C40.3494 77.9376 39.356 79.8497 39.356 83.2226C39.356 86.5242 40.2373 88.1995 41.9777 88.1995C43.3793 88.1995 44.2156 87.1623 44.4871 85.0873H45.4134C45.1191 87.612 43.8307 88.9795 41.7972 88.9795C39.1743 88.9795 37.3896 86.6668 37.3896 83.2245C37.3896 79.7077 39.1972 77.3026 41.865 77.3026C42.8373 77.3026 43.4476 77.5629 44.1724 78.2941L44.781 77.0906H45.167L45.1664 77.0888ZM48.8784 82.0173C49.1044 79.305 49.9623 77.9151 51.4101 77.9151C52.8795 77.9151 53.6253 79.2355 53.7596 82.0173H48.8784ZM51.8171 88.1977C49.7597 88.1977 48.8562 86.5462 48.8334 82.8661H55.5694C55.5245 79.2337 54.0989 77.299 51.4334 77.299C48.7189 77.299 47.023 79.5877 47.023 83.2208C47.023 86.8533 48.7183 88.9759 51.6367 88.9759C53.8518 88.9759 55.299 87.5358 55.5916 85.1068H54.6875C54.4165 87.1117 53.422 88.1977 51.8171 88.1977ZM61.8301 88.3409C60.2024 88.3409 59.3439 86.57 59.3439 83.199C59.3439 79.7804 60.1347 78.1046 61.7629 78.1046C63.4367 78.1046 64.2958 79.8968 64.2958 83.3665C64.2952 86.6419 63.4583 88.3409 61.8301 88.3409ZM66.0799 86.3342V72.7159C64.9499 73.0315 63.9337 73.2186 62.6681 73.36V73.7622C64.092 73.7622 64.273 73.9273 64.273 75.1534V79.2807C63.4367 77.8663 62.7809 77.4404 61.5597 77.4404C59.1413 77.4404 57.4447 79.8224 57.4447 83.2191C57.4447 86.6164 59.1617 88.9966 61.6274 88.9966C62.9158 88.9966 63.7977 88.3835 64.4301 87.0636C64.52 87.96 64.52 88.0539 64.7472 88.949C65.6729 88.6419 66.0583 88.5481 67.3923 88.3835L67.7309 88.3372V87.9362C66.2161 87.8892 66.0799 87.7729 66.0799 86.3342ZM70.442 82.0173C70.668 79.305 71.5265 77.9151 72.9742 77.9151C74.4436 77.9151 75.1883 79.2355 75.3238 82.0173H70.442ZM73.3814 88.1977C71.3227 88.1977 70.4204 86.5462 70.3964 82.8661H77.1331C77.0875 79.2337 75.6637 77.299 72.9971 77.299C70.2826 77.299 68.5877 79.5877 68.5877 83.2208C68.5877 86.8533 70.2826 88.9759 73.2003 88.9759C75.4155 88.9759 76.8621 87.5358 77.1547 85.1068H76.25C75.9808 87.1117 74.9845 88.1977 73.3814 88.1977ZM79.0527 89.0002V85.0593L79.5503 85.0368C79.9562 87.1842 80.9063 88.2226 82.4897 88.2226C83.8218 88.2226 84.8175 87.3018 84.8175 86.1013C84.8175 85.2994 84.3888 84.7578 83.2792 84.2373L82.4207 83.8352L81.3811 83.3402C79.729 82.5389 79.2098 81.8778 79.2098 80.5092C79.2098 78.6451 80.6103 77.3733 82.6012 77.3733C83.483 77.3733 84.1401 77.5854 84.9075 78.1253L85.2906 77.1588H85.6976V80.815H85.1767C84.9717 78.9271 84.2271 78.0327 82.8039 78.0327C81.606 78.0327 80.6768 78.8821 80.6768 79.9906C80.6768 80.9333 81.0162 81.2416 83.0736 82.1843L84.0239 82.6103C85.7402 83.386 86.3529 84.1428 86.3529 85.5352C86.3529 87.5169 84.8374 88.9302 82.7145 88.9302C81.6737 88.9302 80.8596 88.6467 80.0011 87.9398L79.4563 89.0002H79.0527ZM98.9254 80.8614C100.123 80.8614 100.801 81.0747 101.322 81.6158C101.842 82.1606 102.137 83.174 102.137 84.3044C102.137 86.6633 101.005 87.9855 98.9942 87.9855H98.1808C96.9811 87.9855 96.7785 87.7955 96.7785 86.7577V80.8596L98.9254 80.8614ZM96.7766 73.7133H98.6988C100.598 73.7133 101.434 74.6823 101.434 76.8749C101.434 77.9595 101.186 78.7396 100.689 79.3508C100.191 79.9425 99.5811 80.1289 98.3165 80.1289H96.7785V73.7128L96.7766 73.7133ZM103.445 76.8273C103.445 75.6007 102.949 74.5171 102.089 73.8309C101.322 73.2417 100.441 72.9834 98.9694 72.9834H93.0241V73.5727C94.6529 73.6677 94.8778 73.856 94.8778 75.1296V86.5694C94.8778 87.8436 94.6955 88.0069 93.0241 88.1507V88.718H98.7438C100.416 88.718 101.321 88.5042 102.271 87.8912C103.401 87.1368 104.146 85.6973 104.146 84.2141C104.146 82.9374 103.626 81.7828 102.745 81.0777C102.271 80.7005 101.773 80.4854 100.959 80.3221C102.588 79.6823 103.445 78.4787 103.445 76.8273ZM107.837 82.0173C108.065 79.305 108.923 77.9151 110.37 77.9151C111.838 77.9151 112.586 79.2355 112.72 82.0173H107.837ZM110.777 88.1977C108.72 88.1977 107.814 86.5462 107.793 82.8661H114.53C114.485 79.2337 113.06 77.299 110.392 77.299C107.679 77.299 105.984 79.5877 105.984 83.2208C105.984 86.8533 107.679 88.9759 110.595 88.9759C112.81 88.9759 114.257 87.5358 114.551 85.1068H113.646C113.377 87.1117 112.382 88.1977 110.777 88.1977ZM115.726 78.2654V77.8662C117.037 77.6761 117.806 77.489 118.709 77.1581C118.824 77.7029 118.892 78.3141 118.936 79.2105C119.75 77.9357 120.676 77.3715 121.988 77.3715C123.345 77.3715 124.519 78.0997 124.973 79.2569C125.201 79.8242 125.313 80.4836 125.313 81.3788V87.0405C125.313 88.0557 125.539 88.2439 126.916 88.314V88.7863C125.719 88.6675 125.268 88.645 124.453 88.645C123.616 88.645 123.165 88.6675 121.988 88.7863V88.314C123.209 88.2689 123.503 88.0319 123.503 87.0886V81.3087C123.503 79.2569 122.915 78.43 121.469 78.43C119.93 78.43 119.117 79.4458 119.117 81.3788V87.0886C119.117 88.0319 119.413 88.2689 120.59 88.314V88.7863C119.413 88.6675 118.962 88.645 118.146 88.645C117.356 88.645 116.88 88.6675 115.704 88.7863V88.314C117.082 88.2439 117.309 88.0557 117.309 87.0405V79.3995C117.286 78.43 117.151 78.2904 116.021 78.2904C115.952 78.2904 115.84 78.2654 115.726 78.2654ZM127.795 88.718L133.921 78.1965H131.141C129.672 78.1965 129.308 78.5257 128.496 80.6493H128.045L128.565 77.583H136.342L130.192 88.1038H132.836C134.375 88.1038 135.007 87.4683 135.686 85.3202H136.161L135.574 88.718H127.795Z" fill="#7B7B7B"/>
<path d="M96.1429 50.9579C99.1548 45.732 100.743 39.7473 100.734 33.6492C100.734 15.065 86.2946 0 68.4846 0C50.6738 0 36.2358 15.0657 36.2358 33.6492C36.2274 39.7474 37.8153 45.7322 40.8279 50.9579L40.7105 51.056L40.8507 50.9993C46.4952 60.7652 56.7581 67.2982 68.4846 67.2982C80.2115 67.2982 90.4733 60.7652 96.1172 50.9993L96.2575 51.056L96.1429 50.9579ZM96.7718 33.6492C96.7775 38.8023 95.4827 43.8661 93.0179 48.3315L73.0678 31.5657L68.9763 4.14863C84.3703 4.42285 96.7718 17.5208 96.7718 33.6492ZM40.2007 33.6492C40.2007 17.5214 52.601 4.42346 67.9951 4.14863L63.9035 31.5657L43.9536 48.3315C41.4895 43.8658 40.1952 38.8021 40.2007 33.6492ZM68.4857 63.1625C58.4487 63.1625 49.639 57.7025 44.6188 49.479L68.4857 39.8447L92.3527 49.4796C87.3319 57.7025 78.5237 63.1625 68.4857 63.1625Z" fill="#7B7B7B"/>
</svg>
