<svg width="157" height="33" viewBox="0 0 157 33" fill="none" xmlns="http://www.w3.org/2000/svg">
<path d="M16.9214 0C21.7309 0 26.6345 1.13249 31.2434 3.57591C32.8111 7.67346 33.6137 12.0731 33.6137 16.5138C33.6137 20.7829 32.8801 25.1275 31.2559 29.4241C26.6282 31.8744 21.7435 33 16.9276 33C12.1118 33 7.22706 31.8744 2.59936 29.4241C0.96901 25.1207 0.235352 20.7829 0.235352 16.5069C0.235352 12.2241 0.975281 7.83132 2.60563 3.56905C7.20825 1.13249 12.1118 0 16.9214 0Z" fill="#7B7B7B"/>
<path d="M3.60271 28.3949C2.2608 24.7091 1.52087 20.6939 1.52087 16.5072C1.52087 12.3135 2.2608 8.2983 3.60898 4.59884C7.60961 2.54663 12.1683 1.39355 16.9214 1.39355C21.6746 1.39355 26.2332 2.54663 30.2339 4.59884C31.5821 8.2983 32.322 12.3135 32.322 16.5072C32.322 20.6939 31.5883 24.7023 30.2401 28.3949C26.2396 30.4539 21.6746 31.6001 16.9214 31.6001C12.1683 31.607 7.60334 30.4539 3.60271 28.3949Z" fill="white"/>
<path d="M29.4813 27.6258C28.6411 26.109 27.5124 24.8873 27.4999 24.8736C27.4246 24.8461 27.3431 24.8186 27.2678 24.7912C24.8725 23.9813 23.2986 23.3773 22.6025 22.9861C21.6494 22.4439 20.6398 21.126 20.5332 20.9751C19.4108 20.879 18.4828 20.8996 17.5924 21.0231L17.0217 21.1055C15.9369 21.2565 14.8207 21.4212 13.7233 21.229C12.996 21.0986 12.2874 20.8446 11.5349 20.577C10.3749 20.1652 9.18974 19.7327 7.83529 19.7396H7.77886L7.80394 19.7945C8.1112 20.4466 9.3277 22.437 10.8515 22.9861C11.1901 23.0753 11.4284 23.1714 11.5349 23.2606C11.5349 23.2675 12.1181 24.5647 12.2749 24.9147C11.328 24.4411 8.39338 22.8145 6.02937 19.6641V19.6572C6.02937 19.6161 5.96666 19.0052 5.95412 18.8679C7.365 18.2914 10.5316 17.9619 10.889 17.9208H10.9142L10.9267 17.8864C11.1148 16.0607 11.5099 14.5988 12.2497 12.9996C12.2686 12.9515 12.2811 12.9035 12.2811 12.8692C12.2811 12.8417 12.2749 12.8143 12.2624 12.7937C12.2184 12.7045 12.1181 12.6907 12.1181 12.6907L9.96098 12.2789L9.72901 11.4965C11.2841 10.865 13.2029 10.2679 14.3003 10.0071C14.4884 9.68445 14.5385 9.50599 14.5385 9.29322C14.5385 9.11477 14.4571 8.95691 14.3003 8.84022C13.5227 8.26369 11.0709 8.61373 8.59404 9.65013C8.58777 9.6364 8.58777 9.6364 8.5815 9.62267C9.09568 9.20399 10.0175 8.57255 10.7009 8.22937L10.7261 8.21564L10.7198 8.18819C10.5316 7.50183 9.32142 6.9802 9.18974 6.92529C9.18974 6.9047 9.19601 6.88411 9.19601 6.87038C10.4251 6.78116 11.2464 7.40574 11.4911 7.85874L11.5036 7.87933L11.5286 7.87246C11.6854 7.81755 12.2435 7.62537 12.8454 7.54301H12.8831L12.8706 7.50183C12.6699 6.34875 11.6667 5.58003 11.3218 5.34667C11.3343 5.32608 11.3343 5.31922 11.3468 5.30549C12.5382 5.40844 13.6356 6.5272 13.8801 7.47438L13.8864 7.50183H13.9114C14.2313 7.51556 14.62 7.54987 14.8772 7.59792L14.9022 7.60478L14.9147 7.57733C15.0088 7.33024 15.059 7.06256 15.059 6.78802C15.059 5.93694 14.62 5.02408 14.0745 4.44068C14.087 4.42695 14.0934 4.40636 14.1059 4.39264C15.6672 5.03781 16.0623 6.27325 16.0623 7.41947C16.0623 8.2225 15.8679 8.98436 15.7425 9.47167L15.6924 9.67072C15.6924 9.67072 17.9936 9.36872 18.1441 9.34813C17.9121 9.67072 17.4042 10.2473 16.4009 10.8582C16.4009 10.8513 15.3663 10.714 15.3663 10.714L15.3412 10.7072L15.3349 10.7346C15.2659 10.968 14.6577 13.0682 14.6577 14.6125C14.6577 15.1822 14.8082 15.6283 15.0966 15.9372C15.6171 16.4863 16.4762 16.5137 17.0781 16.4863C19.6365 16.3833 21.6369 16.5549 23.0226 17.0079L23.1042 17.0354L23.1167 17.0148C23.2045 16.8706 23.2672 16.603 23.2672 16.2461C23.2672 15.5666 23.0226 14.5645 22.1886 13.4183C22.1949 13.4114 22.1949 13.4045 22.2075 13.3977C22.3454 13.48 24.5903 14.8733 24.8913 16.9805C24.8411 17.001 23.8128 17.4609 23.8128 17.4609L23.8441 17.4952C24.7909 18.5797 25.1171 19.8975 25.3804 20.9476C25.5874 21.7781 25.8382 22.3134 26.1704 22.6292C26.553 22.9929 28.0077 23.7479 28.4405 23.9744C28.8041 24.5372 29.4249 25.5942 29.8764 26.411C30.8609 23.2194 31.3625 19.8769 31.3625 16.5069C31.3625 12.6701 30.7229 8.92945 29.4751 5.36726C25.6061 3.45233 21.2732 2.43652 16.9276 2.43652C12.5759 2.43652 8.24915 3.45233 4.3802 5.36726C3.12608 8.92259 2.48021 12.6976 2.48648 16.5069C2.48648 20.3299 3.12608 24.0705 4.36766 27.6258C8.23661 29.5408 12.5696 30.5497 16.9213 30.5497C21.2732 30.5566 25.6061 29.5476 29.4813 27.6258ZM39.1192 20.9339C39.1192 20.9339 40.5427 21.4898 42.1417 21.4898C43.841 21.4898 44.9008 21.2359 45.4965 20.577C45.9855 20.0347 46.1862 19.1356 46.1549 17.8109V8.97063H48.6693V18.1953C48.6318 22.2791 46.8195 24.0225 42.5932 24.0225C40.5427 24.0225 39.113 23.6724 39.113 23.6724V20.9339H39.1192ZM50.1554 17.9139C50.1554 20.728 51.8423 24.0225 56.6016 24.0225C61.3611 24.0225 63.0478 20.7348 63.0478 17.9139C63.0478 13.9742 60.6399 11.62 56.6016 11.62C52.5696 11.62 50.1554 13.9742 50.1554 17.9139ZM56.6016 21.6065C55.1344 21.6065 52.6637 21.1123 52.6637 17.7904C52.6637 15.4087 54.0997 14.0429 56.6016 14.0429C59.1037 14.0429 60.5333 15.4087 60.5333 17.7904C60.5333 21.1055 58.0752 21.6065 56.6016 21.6065ZM73.5824 11.9014V16.6098H67.0485V11.9014H64.5402V23.7479H67.0485V19.0395H73.5824V23.7479H76.0906V11.9014H73.5824ZM113.488 19.0327H119.283V16.6098H113.488V14.3243H120.976V11.9014H110.98V23.7479H120.976V21.3251H113.488V19.0327ZM125.164 19.0327H130.958V16.6098H125.164V14.3243H132.652V11.9014H122.649V23.7479H132.652V21.3251H125.164V19.0327ZM149.507 19.0327H155.307V16.6098H149.507V14.3243H157V11.9014H146.999V23.7479H157V21.3251H149.507V19.0327ZM98.458 11.4004V21.3045H102.007C103.932 21.3045 107.168 20.6525 107.168 16.3078C107.168 13.1849 105.287 11.4004 102.007 11.4004H98.458ZM102.007 8.95691C106.816 8.95691 109.694 11.7642 109.694 16.4588C109.694 19.822 107.682 23.7479 102.007 23.7479H95.9373V8.95691H102.007ZM145.845 23.7479H142.81L139.781 19.417H136.834V23.7479H134.326V11.9014H141.424C143.869 11.9014 145.324 13.3222 145.324 15.7038C145.324 17.1315 144.597 18.7307 142.691 19.2317L145.845 23.7479ZM141.562 16.9942C142.083 16.9942 142.954 16.8157 142.954 15.6421C142.954 14.8047 142.446 14.3243 141.562 14.3243H136.971V16.9873L141.562 16.9942ZM87.1771 23.7479L80.6493 15.6764V23.7479H78.1411V11.9014H80.6305L87.1833 19.8906V11.9014H89.6978V23.7479H87.1771Z" fill="#7B7B7B"/>
</svg>
