<svg width="108" height="56" viewBox="0 0 108 56" fill="none" xmlns="http://www.w3.org/2000/svg">
<path d="M99.6596 52.7233C99.6596 52.6471 99.6452 52.5717 99.6166 52.5014C99.5888 52.4311 99.5477 52.3673 99.4961 52.3135C99.4445 52.2598 99.3833 52.2172 99.3164 52.1882C99.2495 52.1592 99.1768 52.1443 99.1042 52.1445H98.0241V53.8716H98.3175V53.3055H98.9226L99.3384 53.8716H99.7093L99.2677 53.2709C99.3795 53.2348 99.478 53.1623 99.5487 53.0639C99.6194 52.9655 99.6577 52.8462 99.6596 52.7233ZM98.3175 52.9988V52.4489H99.1042C99.1711 52.4534 99.2332 52.4843 99.2791 52.5354C99.325 52.5865 99.3508 52.6538 99.3508 52.7238C99.3508 52.7938 99.325 52.8612 99.2791 52.9123C99.2332 52.9633 99.1711 52.9943 99.1042 52.9988H98.3175Z" fill="#7B7B7B"/>
<path d="M98.7687 51.0329C98.2821 51.0543 97.8224 51.2715 97.4859 51.6392C97.1485 52.0069 96.9602 52.4967 96.9602 53.0062C96.9602 53.5157 97.1485 54.0054 97.4859 54.3732C97.8224 54.7409 98.2821 54.9581 98.7687 54.9794C99.2543 54.9581 99.7141 54.7409 100.051 54.3732C100.388 54.0054 100.576 53.5157 100.576 53.0062C100.576 52.4967 100.388 52.0069 100.051 51.6392C99.7141 51.2715 99.2543 51.0543 98.7687 51.0329ZM98.7687 54.6739C98.3567 54.6578 97.9657 54.4752 97.6799 54.1643C97.3941 53.8534 97.2335 53.4385 97.2335 53.0068C97.2335 52.575 97.3941 52.1601 97.6799 51.8492C97.9657 51.5383 98.3567 51.3557 98.7687 51.3396C99.1807 51.3557 99.5707 51.5383 99.8565 51.8492C100.143 52.1601 100.303 52.575 100.303 53.0068C100.303 53.4385 100.143 53.8534 99.8565 54.1643C99.5707 54.4752 99.1807 54.6578 98.7687 54.6739ZM24.1547 44.5904H17.3168C17.2215 44.5961 17.1283 44.622 17.0428 44.6663C16.9572 44.7107 16.8811 44.7727 16.819 44.8486L12.5509 50.7447C12.4484 50.8854 12.2777 50.8854 12.1764 50.7447L7.90819 44.8486C7.84608 44.7727 7.76998 44.7107 7.68442 44.6663C7.59888 44.622 7.50566 44.5961 7.41034 44.5904H0.574698C0.533763 44.5902 0.4932 44.5985 0.455326 44.6148C0.417452 44.631 0.383008 44.6549 0.353961 44.6851C0.324913 44.7153 0.301831 44.7512 0.286033 44.7907C0.270234 44.8302 0.262028 44.8726 0.261884 44.9155V54.5551C0.261884 54.7338 0.401769 54.8791 0.574698 54.8791H5.46076C5.5015 54.8793 5.54186 54.871 5.57954 54.8548C5.61721 54.8386 5.65146 54.8147 5.68032 54.7846C5.70918 54.7545 5.73208 54.7188 5.7477 54.6794C5.76332 54.64 5.77137 54.5978 5.77137 54.5551V49.3566C5.77137 49.1767 5.85728 49.1479 5.95862 49.2886L9.81924 54.622C9.88185 54.6981 9.95852 54.76 10.0446 54.8042C10.1308 54.8484 10.2246 54.8739 10.3204 54.8791H14.4079C14.5035 54.8736 14.597 54.848 14.6829 54.8038C14.7688 54.7597 14.8454 54.6978 14.908 54.622L18.7674 49.2886C18.8699 49.1479 18.9547 49.1767 18.9547 49.3566V54.5551C18.9547 54.7338 19.0946 54.8791 19.2664 54.8791H24.1547C24.2368 54.8791 24.3157 54.845 24.3739 54.7843C24.4321 54.7236 24.465 54.6412 24.4653 54.5551V44.9155C24.4653 44.8293 24.4326 44.7466 24.3743 44.6856C24.3161 44.6246 24.237 44.5904 24.1547 44.5904ZM71.6648 44.5904H53.5492C53.454 44.5959 53.3608 44.6216 53.2755 44.666C53.1901 44.7104 53.1142 44.7726 53.0525 44.8486L52.3123 45.8678C52.198 46.0398 52.1323 46.242 52.1229 46.4512V53.0171C52.1229 53.197 52.2077 53.4599 52.3123 53.6028L53.0525 54.6197C53.1137 54.6964 53.1895 54.759 53.275 54.8037C53.3605 54.8483 53.4538 54.874 53.5492 54.8791H71.6648C71.7473 54.8788 71.8264 54.8443 71.8846 54.7831C71.9428 54.722 71.9755 54.6392 71.9755 54.5528V51.9726C71.9755 51.8863 71.9428 51.8036 71.8845 51.7427C71.8263 51.6817 71.7472 51.6474 71.6648 51.6474H57.9143C57.8319 51.6468 57.7531 51.6122 57.6949 51.5511C57.6368 51.4901 57.604 51.4074 57.6037 51.3212V48.1472C57.6037 47.9685 57.7447 47.8232 57.9143 47.8232H71.6648C71.7472 47.8226 71.8261 47.788 71.8843 47.7269C71.9424 47.6658 71.9752 47.5831 71.9755 47.4969V44.9155C71.9752 44.8294 71.9424 44.7468 71.8842 44.6859C71.826 44.625 71.7471 44.5907 71.6648 44.5904ZM88.7474 48.6037C88.6152 48.4907 88.6284 48.3282 88.7804 48.244L95.1248 44.7391C95.2779 44.6561 95.2625 44.5892 95.0906 44.5892H87.6867C87.5148 44.5892 87.2515 44.6561 87.0996 44.7391L80.3939 48.4435C80.2442 48.5265 80.1196 48.4469 80.1196 48.2682V44.9132C80.1193 44.8272 80.0865 44.7448 80.0283 44.684C79.9701 44.6233 79.8913 44.5892 79.809 44.5892H74.9219C74.8397 44.5892 74.7608 44.6233 74.7026 44.684C74.6444 44.7448 74.6115 44.8272 74.6112 44.9132V54.5528C74.6112 54.7338 74.7512 54.8791 74.9219 54.8791H79.809C79.8915 54.8788 79.9705 54.8443 80.0287 54.7831C80.0869 54.722 80.1196 54.6392 80.1196 54.5528V53.3526C80.1251 53.2558 80.1529 53.1617 80.2006 53.0786C80.2484 52.9955 80.3147 52.9257 80.3939 52.8753L84.2291 50.7574C84.3117 50.718 84.4028 50.7024 84.493 50.7121C84.5832 50.7218 84.6693 50.7566 84.7425 50.8127L89.2485 54.6727C89.4094 54.7964 89.6011 54.8681 89.8003 54.8791H95.7614C95.9326 54.8791 95.9651 54.7857 95.8332 54.6727L88.7474 48.6037ZM43.3564 44.8532C43.2943 44.7771 43.2183 44.7148 43.1328 44.6702C43.0472 44.6257 42.954 44.5997 42.8585 44.5938H34.1725C34.0771 44.5998 33.9838 44.6258 33.8982 44.6704C33.8127 44.715 33.7366 44.7772 33.6745 44.8532L26.6021 54.6197C26.4997 54.7627 26.5547 54.8791 26.7255 54.8791L32.1094 54.8745C32.2048 54.8686 32.298 54.8429 32.3837 54.7987C32.4694 54.7546 32.5457 54.6929 32.6083 54.6174L33.5732 53.2858C33.635 53.2093 33.711 53.1468 33.7965 53.1022C33.8822 53.0576 33.9755 53.0318 34.071 53.0264H42.9598C43.0553 53.032 43.1487 53.0579 43.2342 53.1025C43.3199 53.1471 43.3959 53.2094 43.4577 53.2858L44.4204 54.6174C44.525 54.7569 44.7508 54.8745 44.9204 54.8745L50.3033 54.8791C50.474 54.8791 50.5312 54.7627 50.4266 54.6197L43.3564 44.8532ZM41.1391 50.1844H35.9182C35.7475 50.1844 35.6924 50.0656 35.7937 49.9238L37.4073 47.6883C37.469 47.6117 37.545 47.549 37.6306 47.5042C37.7162 47.4594 37.8097 47.4334 37.9053 47.4277H39.1521C39.325 47.4277 39.5475 47.5453 39.6521 47.6883L41.2625 49.9238C41.3671 50.0656 41.3098 50.1844 41.1391 50.1844ZM87.0544 13.0208H90.8776C90.934 13.018 90.9884 12.998 91.034 12.9631C91.0796 12.9283 91.1145 12.8802 91.1342 12.8248L91.8722 10.4625C91.8925 10.4069 91.928 10.3587 91.9742 10.3238C92.0203 10.289 92.0752 10.2691 92.1321 10.2665H95.3142C95.4233 10.2665 95.594 10.3022 95.6943 10.3449L96.596 10.7427C96.6954 10.7853 96.8445 10.76 96.9238 10.6827L99.2504 8.44606C99.3317 8.36997 99.3135 8.27082 99.2141 8.22585L96.4784 7.02565C96.4249 6.99829 96.378 6.95853 96.3417 6.90939C96.3044 6.86025 96.2796 6.80301 96.2671 6.74203L95.8055 3.66832C95.7902 3.55764 95.8571 3.5023 95.9565 3.54496L98.8375 4.80972C98.9369 4.85468 99.0048 4.79819 98.9885 4.6852L98.5536 1.7925C98.5479 1.72928 98.5536 1.66545 98.5718 1.60483C98.5899 1.54422 98.6196 1.48806 98.6597 1.43971L99.3193 0.717973C99.3938 0.637271 99.3785 0.523131 99.2858 0.466637L98.6071 0.0515826C98.5527 0.0228946 98.4934 0.00578159 98.4332 0.00123059C98.372 -0.00332041 98.3108 0.00477961 98.2525 0.0250646L94.5035 1.57345C94.3844 1.61428 94.2558 1.61225 94.1379 1.56768L92.9583 1.04886C92.935 1.03848 92.9101 1.03332 92.8849 1.03371C92.8597 1.03409 92.8349 1.04003 92.812 1.05112C92.7892 1.06221 92.7688 1.07821 92.7523 1.09808C92.7356 1.11796 92.7233 1.14125 92.7159 1.16646L92.6003 1.53425C92.5672 1.64262 92.6113 1.78443 92.6972 1.85015L93.3702 2.35859C93.3908 2.37285 93.408 2.39181 93.4206 2.41406C93.4331 2.4363 93.4407 2.46125 93.4427 2.48701C93.4448 2.51277 93.4412 2.53867 93.4322 2.56276C93.4233 2.58685 93.4092 2.6085 93.3911 2.62607L92.8151 3.23136C92.7721 3.27176 92.7197 3.29939 92.6631 3.31135C92.6065 3.32331 92.5479 3.31918 92.4934 3.29938L91.0296 2.65489C90.9808 2.63226 90.9417 2.59173 90.9196 2.54096C90.8975 2.49019 90.8938 2.4327 90.9095 2.37934L91.4613 0.616518C91.4773 0.563312 91.474 0.505826 91.4521 0.455011C91.4301 0.404196 91.3911 0.363604 91.3423 0.340968L90.7443 0.0769466C90.7212 0.0667276 90.6963 0.0616576 90.6712 0.0620596C90.6462 0.0624616 90.6214 0.0683266 90.5987 0.0792806C90.5758 0.0902356 90.5555 0.10604 90.5388 0.125686C90.5222 0.145332 90.5097 0.168391 90.502 0.193393L89.7839 2.48887C89.7494 2.61777 89.7455 2.75355 89.7728 2.88433L90.2332 4.71864C90.2595 4.84957 90.2553 4.9852 90.2211 5.11409L88.6207 10.2342C88.6007 10.2898 88.5654 10.3381 88.5194 10.3729C88.4734 10.4078 88.4186 10.4277 88.3618 10.4302H87.4994C87.4446 10.432 87.3921 10.4531 87.3503 10.4902C87.3084 10.5272 87.2798 10.578 87.2692 10.6343L86.8925 12.8179C86.8873 12.8429 86.8875 12.8687 86.8934 12.8935C86.8991 12.9183 86.9103 12.9414 86.9259 12.961C86.9416 12.9805 86.9612 12.9961 86.9835 13.0065C87.0058 13.0169 87.0301 13.0218 87.0544 13.0208ZM100.281 2.90277L100.993 2.48657C101.015 2.47534 101.034 2.4589 101.049 2.43854C101.065 2.41818 101.074 2.39446 101.079 2.36928C101.084 2.3441 101.083 2.31814 101.076 2.29347C101.069 2.2688 101.057 2.24609 101.041 2.22716L100.334 1.32672C100.319 1.30597 100.3 1.28899 100.278 1.27699C100.255 1.26499 100.231 1.25825 100.206 1.25726C100.181 1.25627 100.156 1.26105 100.133 1.27126C100.11 1.28147 100.09 1.29686 100.073 1.31634L100.023 1.37053C99.9827 1.41835 99.9521 1.47441 99.9339 1.53515C99.9157 1.5959 99.91 1.65998 99.9157 1.72333L100.077 2.79786C100.094 2.90969 100.185 2.95696 100.281 2.90277ZM100.268 4.06377L100.459 5.32969C100.471 5.3909 100.496 5.44839 100.533 5.49762C100.57 5.54685 100.616 5.58646 100.671 5.61331L102.781 6.54027C102.88 6.58523 102.996 6.70859 103.036 6.81351L103.237 7.35193C103.26 7.40588 103.298 7.45162 103.345 7.48356C103.393 7.5155 103.448 7.53226 103.505 7.53179L103.782 7.51334C103.84 7.50713 103.894 7.48445 103.94 7.44783C103.985 7.4112 104.02 7.36204 104.041 7.30581L104.666 5.29741C104.682 5.23995 104.682 5.1791 104.666 5.12194C104.649 5.06479 104.617 5.01368 104.574 4.97459L103.644 4.21366C103.551 4.12705 103.49 4.00986 103.47 3.88161L103.313 2.29057C103.301 2.17873 103.215 2.13146 103.119 2.18565L100.41 3.7594C100.361 3.79103 100.322 3.8364 100.297 3.89026C100.272 3.94413 100.262 4.00428 100.268 4.06377Z" fill="#7B7B7B"/>
<path d="M107.102 4.40058L104.739 2.96288C104.646 2.90408 104.579 2.95135 104.591 3.06434L104.62 3.34104C104.64 3.47003 104.703 3.58733 104.797 3.67193L106.083 4.70496C106.127 4.74311 106.16 4.79382 106.177 4.85091C106.194 4.90801 106.194 4.96905 106.179 5.02662L105.063 8.59494C105.043 8.65092 105.008 8.69993 104.963 8.73655C104.918 8.77317 104.863 8.79598 104.806 8.80247L101.376 9.01807C101.317 9.02518 101.259 9.04564 101.207 9.07805C101.156 9.11047 101.112 9.15409 101.077 9.20599L99.541 11.815C99.5277 11.8367 99.5191 11.8613 99.5162 11.8869C99.5133 11.9126 99.5152 11.9386 99.5229 11.9632C99.5305 11.9877 99.5439 12.0101 99.5611 12.0288C99.5783 12.0475 99.5984 12.0619 99.6223 12.071L100.345 12.388C100.446 12.4319 100.499 12.5564 100.464 12.6636L99.6959 15.0986C99.6882 15.1237 99.6749 15.1468 99.6586 15.1664C99.6414 15.186 99.6204 15.2016 99.5974 15.2124C99.5745 15.2231 99.5496 15.2287 99.5248 15.2288C99.499 15.2288 99.4741 15.2234 99.4512 15.2127L97.6885 14.4379C97.5671 14.3899 97.44 14.3627 97.31 14.3572H96.4268C96.4019 14.3562 96.3771 14.3611 96.3551 14.3714C96.3321 14.3818 96.3121 14.3973 96.2958 14.417C96.2805 14.4366 96.2681 14.4598 96.2624 14.4848C96.2557 14.5098 96.2557 14.536 96.2605 14.5613L96.8722 18.6461C96.8999 18.7725 96.9707 18.8841 97.071 18.9597L100.028 20.8932C100.118 20.9532 100.105 21.0073 99.998 21.0131L97.3741 21.1734C97.3157 21.18 97.2603 21.2019 97.2116 21.2369C97.1638 21.272 97.1246 21.3191 97.0988 21.374L94.6554 27.2701C94.6114 27.3727 94.5553 27.5479 94.531 27.6586L91.9812 39.0322C91.9596 39.1601 91.9827 39.2919 92.0461 39.4035L92.707 40.4331C92.7676 40.5276 92.7279 40.6048 92.6188 40.6048H91.676C91.6163 40.6011 91.5581 40.5838 91.5053 40.5541C91.4526 40.5245 91.4068 40.4832 91.3709 40.4331L90.8642 39.6445C90.8014 39.5326 90.7776 39.4014 90.797 39.2732L93.2466 27.7093C93.2678 27.5788 93.2509 27.4446 93.1982 27.3242L91.9844 24.8477C91.9602 24.7931 91.951 24.7324 91.9577 24.6725C91.9646 24.6127 91.9872 24.556 92.0229 24.5088L95.5895 20.1888C95.6659 20.0869 95.7014 19.9579 95.6886 19.829L94.9055 14.6143C94.8951 14.5583 94.867 14.5075 94.8256 14.4702C94.7842 14.433 94.732 14.4115 94.6775 14.4091L87.0267 14.3572C87.001 14.3569 86.9754 14.362 86.9515 14.3721C86.9276 14.3822 86.9058 14.3972 86.8875 14.4162C86.8691 14.4352 86.8546 14.4578 86.8446 14.4827C86.8347 14.5076 86.8296 14.5343 86.8296 14.5613V14.672C86.8234 14.8016 86.7726 14.9245 86.6864 15.0179L74.0328 27.2989C73.9365 27.3828 73.8166 27.4317 73.6914 27.4384H72.0371C71.912 27.4453 71.7925 27.4947 71.6967 27.579L70.9675 28.2869C70.928 28.3279 70.9021 28.381 70.8936 28.4385C70.8851 28.4959 70.8944 28.5548 70.9202 28.6063L72.5316 31.5209C72.5871 31.6366 72.5993 31.7698 72.5658 31.8945L69.735 40.41C69.7013 40.5347 69.7139 40.6682 69.7703 40.7835L70.2516 41.6482C70.2843 41.7001 70.328 41.7433 70.3796 41.7743C70.431 41.8054 70.4886 41.8234 70.5479 41.8269H75.8679C75.9225 41.8247 75.975 41.8037 76.0172 41.7673C76.0593 41.7308 76.0889 41.6809 76.1014 41.6252L76.1917 41.1398C76.2 41.0776 76.1956 41.0143 76.1787 40.9541C76.1618 40.8938 76.1328 40.8381 76.0937 40.7905L74.3072 38.8466C74.2312 38.7659 74.2543 38.6714 74.3589 38.6391L81.9931 36.2272C82.0955 36.1926 82.1186 36.1015 82.0427 36.0208L80.1239 33.9997C80.0833 33.9599 80.0316 33.9347 79.9762 33.9279C79.921 33.921 79.8651 33.9329 79.8166 33.9617L73.6716 37.9001C73.5646 37.9748 73.4751 38.0737 73.4095 38.1895L72.2518 40.4238C72.2209 40.4763 72.1782 40.5201 72.1277 40.5517C72.077 40.5832 72.0198 40.6014 71.9611 40.6048L71.1504 40.6071C71.0425 40.6071 70.9896 40.5218 71.0347 40.4169L73.7476 34.0562C73.7755 34.0006 73.8146 33.9519 73.8621 33.9135C73.9096 33.8751 73.9645 33.8479 74.023 33.8337L78.9035 32.954C78.9595 32.9408 79.0109 32.9119 79.0524 32.8705C79.094 32.8291 79.124 32.7766 79.1393 32.7188L80.2737 27.2378C80.2825 27.1767 80.2775 27.1144 80.2592 27.0557C80.2408 26.9971 80.2096 26.9437 80.168 26.9L79.0545 25.8692C79.0123 25.8255 78.9805 25.7721 78.9616 25.7133C78.9426 25.6544 78.9371 25.5918 78.9454 25.5303L79.1437 24.4707C79.1634 24.3589 79.246 24.3289 79.3276 24.405L81.525 26.4399C81.6153 26.5322 81.6781 26.65 81.7056 26.7789L83.0109 34.937C83.0296 35.0477 83.0847 35.0581 83.1342 34.9566L84.934 31.2926C84.962 31.2414 85.0038 31.2 85.0541 31.1736C85.1044 31.1471 85.1611 31.1368 85.217 31.1439L87.6017 31.5728C87.6567 31.5804 87.7125 31.5693 87.761 31.5413C87.8096 31.5133 87.8483 31.4698 87.8716 31.4171L88.5754 29.6589C88.6201 29.5335 88.6355 29.3987 88.6206 29.2658L86.9706 18.7245C86.9529 18.6139 86.9948 18.5931 87.0664 18.6796L91.1033 23.6914C91.1389 23.7402 91.1627 23.7975 91.1726 23.8582C91.1823 23.9188 91.1778 23.9811 91.1594 24.0395L89.9005 27.4361C89.8617 27.5607 89.8632 27.6952 89.9049 27.8188L91.1087 30.828C91.1495 30.9318 91.1649 31.1082 91.1429 31.22L89.2781 40.4042C89.2585 40.5341 89.2794 40.6671 89.3377 40.7835L89.819 41.6482C89.873 41.7462 90.0062 41.8269 90.1131 41.8269H95.4099C95.4668 41.8242 95.5216 41.8042 95.5678 41.7694C95.6139 41.7346 95.6495 41.6865 95.6699 41.631L95.8284 41.1271C95.8437 41.0679 95.8456 41.0056 95.8332 40.9457C95.8198 40.8857 95.793 40.83 95.7547 40.7835L93.3359 38.1537C93.2984 38.1084 93.2736 38.0529 93.2644 37.9937C93.2553 37.9344 93.2621 37.8736 93.2841 37.8182L96.0999 31.612C96.1448 31.5094 96.1954 31.333 96.2088 31.22L96.7049 26.9645C96.7269 26.8324 96.7785 26.7078 96.856 26.6014L100.919 21.5331C100.994 21.4273 101.036 21.3002 101.041 21.1688L100.913 16.5916C100.901 16.4588 100.859 16.3308 100.791 16.2181L100.5 15.7915C100.467 15.738 100.445 15.6779 100.437 15.6152C100.427 15.5524 100.431 15.4884 100.447 15.4272L101.158 13.1467C101.19 13.0214 101.178 12.8884 101.123 12.772L100.675 11.9522C100.662 11.9297 100.655 11.9045 100.652 11.8785C100.649 11.8525 100.652 11.8261 100.659 11.8013C100.667 11.7764 100.68 11.7536 100.697 11.7343C100.714 11.715 100.735 11.6997 100.758 11.6894L105.567 9.4654C105.678 9.40642 105.764 9.30666 105.809 9.18524L107.21 4.69919C107.225 4.6439 107.223 4.58485 107.203 4.53098C107.184 4.4771 107.149 4.43133 107.102 4.40058Z" fill="#7B7B7B"/>
<path d="M95.5886 11.4199H92.9307C92.874 11.4224 92.8192 11.4423 92.7732 11.4772C92.7271 11.512 92.692 11.5602 92.6719 11.6159L92.2952 12.8253C92.26 12.9337 92.3205 13.0213 92.4296 13.0213H95.8284C95.9364 13.0213 96.0138 12.9291 95.9947 12.8172L95.815 11.6239C95.8055 11.568 95.7775 11.5173 95.7362 11.4802C95.695 11.4431 95.643 11.4218 95.5886 11.4199Z" fill="#7B7B7B"/>
</svg>
