<svg width="117" height="66" viewBox="0 0 117 66" fill="none" xmlns="http://www.w3.org/2000/svg">
<path d="M29.6658 54.6201C32.0152 52.5639 32.4217 50.012 32.4217 47.73V38.1163H19.6513V51.1555C19.6513 53.0203 18.2126 54.5318 16.4376 54.5318C14.6626 54.5318 13.3454 53.0203 13.3454 51.1555V14.2169C13.3454 12.3521 14.6626 10.8406 16.4376 10.8406C18.2079 10.8406 19.6513 12.3472 19.6513 14.2169V27.3395H32.4029V13.7262C32.4029 6.20799 27.7227 0.01963 16.3302 0C4.6294 0 0.206055 6.21779 0.206055 13.7409V52.3087C0.206055 59.7632 5.83926 65.4067 13.0418 65.4018H16.9981L29.6658 54.6201ZM80.0046 56.1316V13.7507H71.1952V1.26609H103.089V13.7507H94.2323V65.3282H90.4537L80.0046 56.1316Z" fill="#7B7B7B"/>
<path d="M85.7221 65.4167L54.6601 38.0772L22.4726 65.4167H85.7221Z" fill="#7B7B7B"/>
<path d="M63.5302 1.33499H45.7339L35.3644 50.2035L54.6695 33.8371L74.7966 51.558L63.5302 1.33499ZM51.2269 30.7013L54.6695 12.2345L58.0839 30.7013H51.2269ZM112.781 3.29799C113.775 3.29799 114.621 3.66599 115.322 4.40699C116.018 5.14319 116.368 6.03139 116.368 7.07669C116.368 8.12689 116.018 9.02499 115.322 9.76109C114.621 10.5021 113.775 10.8702 112.781 10.8702C111.781 10.8702 110.932 10.5021 110.239 9.76109C109.558 9.05439 109.179 8.08269 109.199 7.07669C109.199 6.03629 109.548 5.14319 110.244 4.40699C110.903 3.68559 111.823 3.28319 112.781 3.29799ZM116.971 7.07179C116.971 5.86459 116.565 4.83399 115.747 3.98009C114.929 3.13109 113.948 2.70419 112.79 2.70419C111.683 2.68449 110.623 3.14579 109.848 3.98009C109.048 4.78979 108.61 5.90869 108.624 7.07179C108.624 8.28889 109.026 9.32429 109.833 10.1831C110.646 11.0419 111.632 11.4738 112.785 11.4738C113.939 11.4738 114.929 11.0468 115.743 10.1831C116.56 9.32429 116.971 8.28389 116.971 7.07179ZM113.897 6.12959C113.897 6.49759 113.738 6.74789 113.421 6.87549C113.168 6.95889 112.907 6.99329 112.645 6.98349H111.912V5.25109H112.608C113.51 5.25109 113.897 5.43269 113.897 6.12959ZM111.099 4.65729V9.46659H111.908V7.57729H112.547C112.977 7.57729 113.276 7.62629 113.448 7.72939C113.738 7.90609 113.883 8.27409 113.883 8.82379V9.20649L113.901 9.35869C113.901 9.37829 113.906 9.39299 113.911 9.41269L113.925 9.45679H114.678L114.649 9.39789C114.602 9.02009 114.597 8.44099 114.597 8.44099C114.589 7.82759 114.159 7.31229 113.579 7.22879C114.392 7.08649 114.681 6.70369 114.681 6.04609C114.681 5.43759 114.443 5.03519 113.972 4.82419C113.706 4.70639 113.285 4.65239 112.72 4.65239L111.099 4.65729Z" fill="#7B7B7B"/>
</svg>
