<svg width="173" height="37" viewBox="0 0 173 37" fill="none" xmlns="http://www.w3.org/2000/svg">
<path d="M56.3473 10.6327H42.4732V26.4931H56.3233C60.9241 26.4931 62.5296 24.8944 62.5296 20.961V16.1648C62.5296 12.2568 60.9241 10.6327 56.3233 10.6327M57.9528 19.5653C57.9528 21.8238 57.186 22.4075 55.2211 22.4075H47.0739V14.5915H55.2211C57.186 14.5915 57.9528 15.1751 57.9528 17.3322V19.5653ZM69.5026 22.6866H81.4837V26.4931H64.9018V10.6327H81.292V14.3123H69.5026V16.85H80.669V20.149H69.5026V22.6866ZM135.735 10.4551H128.378C124.233 10.4551 121.788 11.5463 121.788 16.1902V20.9356C121.788 25.5796 124.185 26.6708 128.378 26.6708H135.735C139.879 26.6708 142.324 25.5796 142.324 20.9356V16.2156C142.324 11.5717 139.927 10.4805 135.735 10.4805M137.627 19.4384C137.627 21.7223 137.172 22.6105 134.991 22.6105H129.121C126.941 22.6105 126.485 21.7223 126.485 19.4384V17.7128C126.485 15.7334 126.941 14.5407 129.36 14.5407H134.632C137.028 14.5407 137.508 15.7588 137.508 17.7128L137.627 19.4384ZM168.467 10.6327V14.5915H162.02V26.4931H157.42V14.5915H150.974V10.6327H168.467ZM114.935 10.6327H101.085V26.4931H105.686V22.4075H112.874C114.312 22.4075 114.767 22.9404 114.767 24.6153V26.5185H119.368V23.8032C119.368 21.2655 118.218 20.555 116.972 20.3012C119.08 19.7683 119.535 18.5249 119.535 16.3932V15.3782C119.535 12.536 118.578 10.6581 115.055 10.6581M115.055 16.7992C115.055 17.9412 114.599 18.4741 113.354 18.4741H105.662V14.5915H112.85C114.289 14.5915 114.959 14.8452 114.959 16.241L115.055 16.7992ZM144.96 10.6327H149.561V26.4931H144.96V10.6327ZM82.4182 10.6327H99.9111V14.5915H93.4409V26.4931H88.864V14.5915H82.3943L82.4182 10.6327Z" fill="#7B7B7B"/>
<path d="M169.905 12.663V10.8866H169.281V10.6582H170.791V10.8866H170.168V12.663H169.905Z" fill="#7B7B7B"/>
<path d="M171.078 10.6582H171.414L172.013 12.3584L172.612 10.6582H172.972V12.663H172.732V10.9881L172.133 12.663H171.917L171.318 10.9881V12.663H171.078V10.6582Z" fill="#7B7B7B"/>
<path d="M29.8691 26.7476L24.5255 20.9364H28.5272V18.3987C28.5272 18.3987 28.6231 6.42089 17.217 6.42089C14.7113 6.45738 12.2831 7.34716 10.292 8.9586L11.9693 10.7857C13.2649 9.7267 14.8152 9.074 16.4437 8.9018C18.0723 8.7295 19.7138 9.04469 21.1816 9.81129C22.6494 10.578 23.8847 11.7654 24.7469 13.2386C25.6092 14.7118 26.0638 16.4117 26.0591 18.1449H18.8704L29.941 30.1735C31.7292 28.0971 33.0267 25.601 33.727 22.8904L29.8691 26.7476Z" fill="#7B7B7B"/>
<path d="M17.217 0.381104C13.2191 0.380784 9.35251 1.89269 6.31416 4.64438L8.23114 6.72527C10.7777 4.56999 13.9578 3.42944 17.217 3.50243C19.0945 3.41563 20.9689 3.73648 22.7248 4.44525C24.4809 5.15402 26.0815 6.23573 27.4281 7.62385C28.7748 9.01199 29.8391 10.6772 30.5556 12.517C31.272 14.3569 31.6255 16.3325 31.5944 18.3224C31.5944 20.7078 31.5944 20.8601 31.5944 20.8601H33.9906C34.3632 18.3104 34.2068 15.7053 33.5323 13.226C32.8579 10.7468 31.6816 8.45289 30.0852 6.50388C28.4889 4.55486 26.5108 2.99751 24.2885 1.94014C22.0662 0.882775 19.6531 0.350764 17.217 0.381104Z" fill="#7B7B7B"/>
<path d="M10.0283 15.7848H6.12248V18.3225C6.12248 18.3225 6.12248 30.1987 17.4327 30.1987C19.964 30.0672 22.3969 29.1198 24.4056 27.4834L22.7044 25.6309C21.4087 26.6899 19.8584 27.3426 18.2299 27.5148C16.6013 27.6871 14.9599 27.372 13.4921 26.6053C12.0242 25.8386 10.789 24.6512 9.92671 23.178C9.0645 21.7048 8.60987 20.0049 8.61455 18.2717H15.8751L4.82851 6.24316C2.99625 8.37238 1.68044 10.9416 0.994551 13.7293L4.78059 9.99889L10.0283 15.7848ZM26.3946 29.7673C23.8331 32.0635 20.5726 33.2987 17.217 33.2439C15.3697 33.2676 13.5365 32.901 11.8246 32.1655C10.1126 31.4301 8.55636 30.3406 7.24669 28.9607C5.93703 27.5808 4.90027 25.9383 4.19705 24.1291C3.49384 22.3199 3.13828 20.3804 3.15116 18.424C3.15116 16.2162 3.15116 15.8863 3.15116 15.8863H0.611156C0.499643 16.727 0.44359 17.575 0.443418 18.424C0.393005 21.8715 1.29109 25.2601 3.02812 28.1763C4.76516 31.0926 7.26607 33.4104 10.2257 34.8471C13.1854 36.2838 16.4759 36.7773 19.6959 36.2673C22.9159 35.7573 25.9262 34.266 28.3595 31.9751L26.3946 29.7673Z" fill="#7B7B7B"/>
<path d="M32.4091 0.000144468C32.8319 0.000174468 33.2452 0.133294 33.5964 0.382604C33.9476 0.631914 34.2209 0.986155 34.3816 1.40032C34.5423 1.8145 34.5831 2.2699 34.4988 2.70869C34.4146 3.14748 34.2091 3.54985 33.9085 3.86467C33.6077 4.1795 33.2256 4.39258 32.8102 4.47684C32.395 4.5611 31.9654 4.51273 31.5762 4.33789C31.187 4.16305 30.8556 3.86963 30.6241 3.49489C30.3927 3.12016 30.2717 2.68102 30.2765 2.23328C30.2765 1.93788 30.3317 1.6454 30.4393 1.37279C30.5467 1.10019 30.7042 0.852875 30.9025 0.645175C31.1008 0.437475 31.3362 0.273514 31.5947 0.162794C31.8534 0.0520645 32.1301 -0.00321553 32.4091 0.000144468ZM32.4091 4.16191C32.645 4.16212 32.8785 4.1118 33.0956 4.01398C33.3126 3.91616 33.5087 3.77286 33.6722 3.59269C33.8355 3.41253 33.9629 3.19922 34.0464 2.96561C34.1299 2.73199 34.1681 2.48289 34.1583 2.23328C34.1583 1.74197 33.974 1.27078 33.646 0.923374C33.3179 0.575964 32.873 0.380795 32.4091 0.380795C31.9452 0.380795 31.5002 0.575964 31.1722 0.923374C30.8442 1.27078 30.6599 1.74197 30.6599 2.23328C30.6501 2.48289 30.6883 2.73199 30.7718 2.96561C30.8554 3.19922 30.9827 3.41253 31.1461 3.59269C31.3095 3.77286 31.5057 3.91616 31.7226 4.01398C31.9397 4.1118 32.1732 4.16212 32.4091 4.16191ZM31.5944 0.939075H32.5529C33.152 0.939075 33.4155 1.19284 33.4155 1.70037C33.4188 1.79246 33.4044 1.8843 33.3734 1.97038C33.3423 2.05646 33.2951 2.13502 33.2348 2.20135C33.1743 2.26769 33.1019 2.32044 33.0218 2.35645C32.9417 2.39246 32.8556 2.41098 32.7686 2.41092L33.4874 3.57825H33.0801L32.4091 2.4363H32.0018V3.57825H31.5944V0.939075ZM31.9778 2.1064H32.3852C32.7206 2.1064 33.0321 2.1064 33.0321 1.675C33.0321 1.24359 32.7446 1.26897 32.4809 1.26897H31.9778V2.1064Z" fill="#7B7B7B"/>
</svg>
