<svg width="126" height="52" viewBox="0 0 126 52" fill="none" xmlns="http://www.w3.org/2000/svg">
<path d="M125.008 15.4112C125.149 15.1602 125.002 14.9707 124.693 14.9707C123.092 14.9707 120.995 14.9778 119.333 14.9778C118.938 14.9778 118.729 15.0275 118.543 15.4112C117.928 16.6406 110.429 28.3606 109.037 30.6297C108.803 30.9803 108.515 30.9305 108.481 30.5326C108.341 29.1848 107.221 27.6263 105.459 26.8849C104.119 26.3188 102.799 26.2146 101.439 26.4017C98.9729 26.7452 96.7772 28.1071 94.8473 29.6301C91.9405 31.9372 89.4265 34.9264 86.1841 37.1411C84.4148 38.342 81.9897 39.3913 80.3685 37.8256C78.9012 36.4068 79.0695 33.2565 81.3129 30.8168C81.5471 30.5586 81.8358 30.7742 81.788 31.0063C81.5749 32.1101 81.8358 33.2068 82.6397 33.9766C83.6185 34.8909 85.017 34.9975 86.2157 34.3816C87.6285 33.6474 88.4591 32.2356 88.7067 30.6368C89.0814 28.1498 87.2471 25.954 84.9491 25.7811C83.0804 25.6414 81.291 26.3188 79.5484 27.8205C78.6766 28.5761 78.1748 29.1351 77.4254 30.2602C77.2438 30.5326 76.956 30.561 76.9694 30.156C77.0554 26.9702 75.7975 25.1795 73.2721 25.1179C71.3173 25.0682 69.2191 26.179 67.5913 27.5363C65.8018 29.0309 64.2418 31.0229 62.5655 32.8894C62.3589 33.1191 62.1772 33.1049 62.1159 32.6596C62.0614 30.5492 61.5595 28.5098 60.6217 27.0554C60.2924 26.5533 59.5976 26.2998 59.0071 26.6433C58.7392 26.7973 57.7946 27.252 57.1111 27.8252C56.7705 28.119 56.641 28.5382 56.7886 29.083C57.6924 32.2356 57.4925 35.8194 56.2663 38.8441C55.14 41.6178 52.951 44.1191 50.3781 44.9647C48.6841 45.5237 46.922 45.2513 45.8297 43.6856C44.3355 41.5254 44.9396 37.7593 47.1695 34.6422C49.1383 31.8969 51.9859 30.1489 54.8266 29.0238C55.1627 28.8911 55.2285 28.6685 55.1354 28.3677C54.9811 27.8774 54.7336 27.2141 54.6336 26.9133C54.3724 26.1933 53.6413 26.0748 52.7511 26.1719C50.687 26.423 48.8249 27.1573 46.9833 28.1853C42.1669 30.876 39.7553 36.0823 38.6971 38.8702C38.1885 40.2108 37.7525 41.0446 37.1893 41.7836C36.4331 42.7761 35.4748 43.6832 33.7331 45.2844C33.572 45.4313 33.4584 45.7392 33.5924 46.0187C33.774 46.4024 34.6778 47.7383 34.9322 47.8568C35.2137 48.0036 35.5475 47.7999 35.6747 47.7028C36.8941 46.843 38.3543 45.4739 39.0718 44.5454C39.3193 44.2304 39.5805 44.363 39.7145 44.8462C40.3844 47.3262 42.1261 49.3538 44.5377 50.1994C48.9521 51.7508 53.5345 49.5006 56.9907 45.5876C59.1889 43.1006 59.9791 41.4994 60.8216 40.4098C62.2476 38.5646 65.061 34.4361 68.4171 31.7856C69.6502 30.8074 71.1041 30.066 71.8354 30.5563C72.4251 30.9542 72.6115 31.878 71.6671 33.6663C68.2489 40.18 63.2191 47.8307 62.2953 49.6901C62.1272 50.0122 62.2748 50.2633 62.5973 50.2633C64.3871 50.2562 66.1603 50.2562 67.7815 50.2562C68.0491 50.242 68.1696 50.1164 68.311 49.9127C70.9359 45.6303 73.4021 41.5491 76.047 37.3353C76.1951 37.0842 76.329 37.2785 76.3357 37.3922C76.3901 38.3704 76.6243 39.7111 77.1807 40.5851C78.1796 42.2052 79.599 42.904 81.1724 42.9182C82.4256 42.9324 83.0546 42.7358 84.4081 42.2123C85.5074 41.786 86.3906 41.227 87.0607 40.7248C87.4554 40.4382 87.5243 40.9214 87.5166 40.9901C86.9087 44.3938 87.6581 48.4181 90.9004 50.0951C94.7794 52.0872 99.0388 49.2851 101.492 46.7554C101.733 46.5114 101.987 46.5398 102.014 47.0633C102.068 48.0273 102.484 49.1737 103.253 49.9767C105.311 52.1298 109.45 51.2771 113.611 47.916C116.284 45.7629 119.077 42.724 121.604 39.5097C121.697 39.3842 121.765 39.1876 121.583 38.9863C121.202 38.567 120.646 38.0838 120.264 37.7143C120.089 37.5603 119.835 37.603 119.688 37.7214C117.101 40.2866 114.772 43.2143 111.401 45.6397C110.269 46.464 108.454 47.1343 107.643 45.9903C107.327 45.5426 107.362 44.9291 107.677 44.1167C108.656 41.5538 124.204 16.8727 125.008 15.4112ZM104.462 36.1084C104.496 36.2978 104.73 36.4779 104.963 36.5702C105.043 36.5987 105.091 36.6602 104.998 36.8639C104.334 38.3372 103.73 39.1899 102.902 40.4761C102.139 41.6652 101.28 42.5866 100.242 43.4748C98.6756 44.8297 96.4981 46.2982 94.6953 45.3129C93.8981 44.8794 93.5502 43.7117 93.5616 42.769C93.6027 40.1137 94.7335 37.3803 96.825 34.7061C99.3772 31.4279 102.198 29.7296 104.047 30.6605C105.963 31.6103 105.352 33.9245 104.496 35.7412C104.435 35.8786 104.428 35.997 104.462 36.1084Z" fill="#7B7B7B"/>
<path d="M12.2673 50.1613C6.47224 50.2039 1.36744 46.471 0.783874 39.9999C0.454572 36.4161 1.42652 33.2208 3.37709 30.594C5.09844 28.2538 8.01866 26.3044 10.4915 25.8283C11.2954 25.6744 12.374 25.7715 12.8237 26.3234C13.5276 27.1761 13.3186 28.1046 12.6215 28.4836C10.7391 29.4902 8.46831 31.2099 7.34878 33.5501C6.43821 35.4639 6.25649 37.7781 7.64396 39.9714C9.96923 43.6404 16.4592 43.7376 22.4904 37.8894C23.9847 36.4564 25.3176 35.0873 26.6778 33.4601C29.3369 30.2956 30.2157 29.1349 33.7514 24.0258C33.7922 23.9689 33.8059 23.886 33.7854 23.8505C33.7582 23.7866 33.7059 23.7676 33.6037 23.7605C31.2467 23.8316 29.1894 24.5635 27.1933 26.122C26.6165 26.5626 25.7922 26.4986 25.4243 25.9183C25.0224 25.2693 25.3108 24.4166 25.9739 23.9405C29.1894 21.6074 32.7 21.1882 36.2833 20.5581C36.2833 20.5581 36.5308 20.5723 36.7398 20.2857C38.2135 18.315 39.3262 16.5409 40.893 14.5489C42.4735 12.5284 44.5172 10.6714 46.0773 9.28111C48.255 7.32461 49.647 6.66841 51.0684 5.86311C51.4432 5.65941 51.0208 5.41541 50.9073 5.41541C42.9822 3.86401 34.7483 1.85061 26.8776 4.89201C21.4323 7.01661 19.0388 11.5241 20.1924 14.5347C21.0099 16.6736 23.7031 17.0146 26.2282 15.7285C28.3242 14.6602 30.2611 12.9335 31.635 10.7117C32.4048 9.48241 34.0261 10.3683 33.1496 12.5071C30.8447 18.154 26.444 22.633 21.0848 22.8202C16.5228 22.9741 13.5821 19.4733 13.5889 15.1553C13.6093 6.63771 22.6994 1.03351 32.2458 0.18791C43.7474 -0.80459 54.6405 2.38831 66.0628 3.83561C74.812 4.93931 83.2046 4.96781 91.9949 2.85731C93.033 2.62051 93.7643 3.31211 93.6964 4.40881C93.6094 5.99581 92.4356 7.51881 89.5354 9.16741C86.2405 11.0552 82.7965 11.6213 79.1928 11.6544C70.4904 11.7302 62.3771 8.18911 53.9888 6.28711C54.0023 6.67081 54.0954 7.12561 53.7866 7.36961C49.1451 10.9462 44.9441 14.5821 42.1306 19.6817C42.0375 19.8002 42.0898 19.9115 42.251 19.8973C44.6966 19.7646 46.8925 19.6936 49.1724 19.5064C49.5675 19.4709 49.5879 19.3667 49.5471 19.0659C49.345 17.306 49.8355 15.3069 51.3228 13.9236C52.8374 12.5048 54.7404 12.3437 55.9984 13.3646C57.4313 14.5323 57.3041 16.6214 56.5207 18.1942C55.7236 19.7883 54.4111 20.641 53.144 21.0532C53.144 21.0532 52.8828 21.1171 52.9169 21.3682C52.9714 21.7732 54.6927 22.7657 54.8403 23.031C54.9811 23.282 54.9084 23.6729 54.645 23.9737C54.4634 24.1892 54.175 24.3929 53.8138 24.3858C53.5187 24.3787 53.3392 24.2745 52.9623 24.0566C52.1926 23.616 51.2274 22.9031 50.578 22.0575C50.3577 21.7709 50.2488 21.7637 49.7014 21.7993C47.2354 21.9461 43.3841 22.337 40.7772 22.6733C40.1482 22.7562 40.0529 22.877 39.9188 23.1068C35.7587 30.2553 31.3238 37.9699 26.453 43.1264C21.2302 48.6667 16.8839 50.1258 12.2673 50.1613ZM51.886 18.3884C51.9541 18.758 52.0881 18.829 52.2471 18.7935C53.0373 18.6253 53.9092 17.9479 54.418 17.1662C54.888 16.4533 55.1082 15.4182 54.6382 15.006C54.2227 14.6365 53.5528 14.7408 53.0509 15.2026C52.0608 16.1169 51.752 17.4244 51.886 18.3884Z" fill="#7B7B7B"/>
</svg>
