<svg width="107" height="122" viewBox="0 0 107 122" fill="none" xmlns="http://www.w3.org/2000/svg">
<path d="M53.4046 122L5.39302 72.1362C2.23216 68.8798 0.460162 65.1015 0.364378 61.4226C0.268595 57.3709 1.94481 53.493 5.39302 49.9384L53.4046 0L101.417 49.9384C104.864 53.5179 106.637 57.3709 106.444 61.4226C106.349 65.1015 104.577 68.855 101.417 72.1362L53.4046 122Z" fill="#7B7B7B"/>
<path d="M7.52403 70.0233C4.81814 67.2144 3.3335 64.2315 3.23771 61.3232V60.9255C3.23771 57.9426 4.72236 54.9349 7.52403 52.0514C7.52403 52.0514 44.1852 13.8953 53.4044 4.32519C57.2118 8.27752 99.3566 52.0514 99.3566 52.0514C102.158 54.9597 103.547 57.9426 103.547 60.9255V61.3232C103.452 64.2315 101.967 67.2144 99.3566 70.0233L53.4044 117.725C49.597 113.772 7.52403 70.0233 7.52403 70.0233Z" fill="white"/>
<path d="M94.1604 68.8793L53.4045 111.162L12.6485 68.8793H94.1604ZM96.6744 66.2693L95.2859 67.7111H11.5231L10.1343 66.2693H96.6744ZM48.3759 49.8386L11.0682 54.8598L53.4045 10.8125L95.7409 54.8598L58.4331 49.8386C57.595 49.6398 55.5596 49.3663 53.4045 49.3663C51.2734 49.3663 49.214 49.6398 48.3759 49.8386Z" fill="#7B7B7B"/>
<path d="M48.2801 70.5947L46.0532 94.8307L22.8017 70.5947H48.2801ZM22.227 51.9518L50.4113 48.1735L53.0215 19.8858L22.227 51.9518ZM84.0075 70.5947L60.756 94.8307L58.529 70.5947H84.0075ZM53.8595 19.8858L56.4696 48.1982L84.6779 51.9518L53.8595 19.8858Z" fill="white"/>
<path d="M85.9709 56.3017L83.4567 56.0034L81.972 63.7341H83.5525C83.5525 63.7341 83.8398 62.4912 83.8398 62.2924H85.6118L85.8991 63.7341H87.4796L85.9709 56.3017ZM84.0075 60.8506C84.1032 60.5523 84.6539 57.8677 84.6539 57.5695C84.7497 57.8677 85.3005 60.5772 85.3005 60.9501C85.0371 60.8506 84.2948 60.8506 84.0075 60.8506ZM13.9417 57.1716V63.7341H15.6179V56.9977L13.9417 57.1716ZM19.0661 56.6L17.8449 56.6994V63.7589H19.521V60.3783C19.4253 60.3783 21.1973 63.7589 21.1973 63.7589H22.4185V56.2271L20.8381 56.426V59.906L19.0661 56.6ZM25.3878 57.47V63.7341H27.064V57.3706L28.381 57.1716V55.5311L24.0948 56.0283V57.6688L25.3878 57.47ZM31.8053 60.2789L34.1521 60.1795V58.34L31.8053 58.5389V56.8983L34.1521 56.6994V54.86L30.153 55.2577V63.7341H34.2239V62.0189H31.8053V60.2789ZM45.2151 58.9117L46.987 63.7341H48.4717V53.12L46.7954 53.3188V58.5389L45.0235 53.6171L43.5388 53.6917V63.7341H45.2151V58.9117ZM58.984 55.3571V63.7341H60.7559V55.5311L62.5279 55.7299V53.6171L57.1162 53.0205V55.2577L58.984 55.3571ZM64.2999 63.7341H66.1437V54.0894L64.2999 53.8906V63.7341ZM72.1063 54.7606L70.1428 54.4622C68.9215 54.3628 68.3707 55.0339 68.3707 56.4011V61.7206C68.3707 63.0629 69.0173 63.7341 70.1428 63.7341H71.9147C73.136 63.7341 73.6867 63.0629 73.6867 61.7952V56.8734C73.6867 55.73 73.2318 54.86 72.1063 54.7606ZM72.0106 62.0189L70.047 61.9195V56.426L72.0106 56.6249V62.0189ZM78.7154 59.3095C78.1646 58.1412 78.1646 58.0666 76.8476 55.2577L75.5545 55.1583V63.7589H77.3265V60.0055L79.2901 63.7589H80.5113V55.7549L78.7393 55.556C78.7153 55.5311 78.7154 58.2406 78.7154 59.3095ZM90.3531 56.8983L88.6768 56.6994V63.7341H92.9392V62.1929H90.3531V56.8983ZM54.53 52.7471L56.5893 63.7589H54.8174L54.4342 62.0189H52.3988C52.3988 61.9195 52.1115 63.7589 52.1115 63.7589H50.2437L52.279 52.7471H54.53ZM53.4045 55.2577L52.5665 60.08H54.2426L53.4045 55.2577ZM39.8272 63.7341H41.7908L40.1146 59.8812C40.9527 59.4089 41.3358 58.7128 41.3358 57.6688V56.0283C41.3358 54.7606 40.785 54.0894 39.5638 54.1888L36.4988 54.5866V63.7589H38.0791V59.6077L39.8272 63.7341ZM39.7315 58.1412L38.0552 58.2406V56.3017L39.7315 56.1029V58.1412Z" fill="#7B7B7B"/>
</svg>
