<svg width="152" height="28" viewBox="0 0 152 28" fill="none" xmlns="http://www.w3.org/2000/svg">
<path d="M2.71432 2.60918L2.70945 2.61385C2.08971 3.20571 1.59814 3.90938 1.26305 4.68433C0.927954 5.45928 0.755972 6.29018 0.756995 7.12919C0.754796 8.73629 1.38428 10.2851 2.5198 11.4665L0 13.8844L2.53034 16.3123C1.38828 17.4918 0.754596 19.0427 0.756995 20.6527C0.756995 22.289 1.40943 23.9292 2.71432 25.175C3.33279 25.7667 4.0667 26.2357 4.87412 26.5552C5.68154 26.8746 6.54664 27.0383 7.42 27.0368C9.09631 27.0385 10.7119 26.435 11.9458 25.3461L14.468 27.7663L16.9861 25.3508C18.218 26.4378 19.8311 27.0397 21.5046 27.0368C22.3785 27.0384 23.2441 26.8748 24.0521 26.5553C24.86 26.2359 25.5945 25.7669 26.2135 25.175H26.2184C26.8372 24.5813 27.3275 23.8762 27.6615 23.1001C27.9954 22.324 28.1663 21.4923 28.1644 20.6527C28.1644 19.0942 27.5768 17.5341 26.4032 16.3147L28.936 13.8844L26.4088 11.4587C27.5394 10.2777 28.1661 8.73204 28.1644 7.12841C28.166 6.28918 27.995 5.45788 27.661 4.68223C27.3271 3.90657 26.8369 3.20182 26.2184 2.60841L26.2159 2.61074C25.5985 2.01517 24.8643 1.54273 24.0557 1.22066C23.2472 0.898582 22.3801 0.733242 21.5046 0.734152C19.8333 0.732402 18.2228 1.33592 16.9951 2.42409L14.468 0L11.9393 2.42643C10.7083 1.33656 9.09415 0.732252 7.41919 0.734152C6.54483 0.733472 5.67899 0.898792 4.87151 1.2206C4.06404 1.5424 3.3309 2.01433 2.71432 2.60918ZM10.153 23.6266C9.39451 24.258 8.42328 24.6042 7.41919 24.6011C6.8776 24.6032 6.34088 24.5029 5.83968 24.306C5.33848 24.109 4.88264 23.8192 4.49819 23.4532C4.11454 23.0858 3.81058 22.649 3.60385 22.1682C3.39713 21.6874 3.29176 21.172 3.29381 20.6519C3.29381 19.7109 3.63665 18.773 4.32151 18.0303L10.153 23.6266ZM3.58965 13.8844L4.5914 12.9223C5.47695 13.3183 6.44224 13.5229 7.41919 13.5219C9.18568 13.5238 10.8806 12.8525 12.1314 11.6555L12.1362 11.6508C13.384 10.4508 14.084 8.82433 14.0822 7.12919C14.083 6.19169 13.8694 5.26545 13.4565 4.41579L14.468 3.44522L15.473 4.40957C15.0585 5.26099 14.844 6.18944 14.8449 7.12919C14.8449 8.76314 15.4932 10.401 16.7908 11.6508V11.6555C17.4098 12.2491 18.1448 12.7195 18.9537 13.0398C19.7627 13.3601 20.6296 13.524 21.5046 13.5219C22.4847 13.5228 23.4531 13.3171 24.3414 12.9192L25.3471 13.8844L24.3292 14.8604C23.4444 14.4657 22.4803 14.2616 21.5046 14.2623C20.6295 14.2602 19.7626 14.424 18.9536 14.7443C18.1447 15.0646 17.4096 15.5352 16.7907 16.1289C16.1719 16.7227 15.6814 17.4279 15.3475 18.2041C15.0136 18.9803 14.8428 19.8122 14.8449 20.6519C14.8441 21.5882 15.0568 22.5132 15.4681 23.3622L14.4688 24.3211L13.4629 23.356C13.8721 22.5083 14.0837 21.5853 14.083 20.6511C14.0848 19.8115 13.9139 18.9798 13.5799 18.2038C13.246 17.4277 12.7557 16.7226 12.137 16.1288H12.1322C11.513 15.5358 10.7782 15.0657 9.96966 14.7453C9.16116 14.4249 8.29476 14.2605 7.42 14.2615C6.44753 14.261 5.48665 14.464 4.60437 14.8565L3.58965 13.8844ZM6.60222 16.7758C6.8713 16.7245 7.14524 16.6981 7.41919 16.6981C8.48011 16.6981 9.53942 17.0815 10.3443 17.8491L10.3418 17.8514C10.7244 18.2194 11.0276 18.6563 11.2339 19.137C11.4402 19.6178 11.5454 20.1328 11.5437 20.6527C11.5437 20.9163 11.517 21.18 11.4627 21.4397L6.60222 16.7758ZM4.31665 9.74145C3.65625 9.01864 3.29293 8.08969 3.29462 7.12841C3.29462 6.11118 3.69582 5.09783 4.49901 4.33024L4.50387 4.32557C4.88643 3.95788 5.34107 3.66652 5.84157 3.4683C6.34208 3.27009 6.87854 3.16893 7.42 3.17068C8.39258 3.17068 9.36593 3.49732 10.1424 4.15137L4.31665 9.74145ZM10.3467 9.93275L10.3418 9.93745C9.56475 10.6766 8.51409 11.09 7.42 11.087C7.14119 11.087 6.86239 11.0597 6.58844 11.0069L11.4619 6.33049C11.517 6.59335 11.5453 6.86088 11.5453 7.12841C11.5476 8.17846 11.1166 9.18667 10.3467 9.93275ZM18.7871 4.14437C19.5397 3.51403 20.5056 3.16794 21.5046 3.17068C22.5664 3.17068 23.6248 3.55565 24.424 4.32557V4.33024C24.8065 4.6977 25.1096 5.13406 25.3159 5.61426C25.5222 6.09445 25.6275 6.60903 25.626 7.12841C25.626 8.06165 25.2896 8.99489 24.6169 9.73835L18.7871 4.14437ZM22.3467 11.0053C22.0695 11.0597 21.7867 11.087 21.5046 11.087C20.9629 11.0884 20.4262 10.9873 19.9252 10.7894C19.4242 10.5915 18.9689 10.3007 18.5852 9.93355L18.5828 9.93595C17.8113 9.18972 17.3799 8.18029 17.3833 7.12919C17.3833 6.85933 17.4117 6.58946 17.4684 6.32426L22.3467 11.0053ZM24.6063 18.0388C25.2659 18.7623 25.6283 19.6915 25.626 20.6527C25.6276 21.1725 25.5223 21.6876 25.316 22.1683C25.1097 22.649 24.8066 23.0859 24.424 23.454L24.4264 23.4563C23.6489 24.1942 22.5982 24.6062 21.5046 24.6019C20.5036 24.6057 19.5351 24.2608 18.779 23.6313L24.6063 18.0388ZM17.466 21.4467C17.4109 21.1853 17.3833 20.9194 17.3833 20.6527C17.3833 19.6362 17.7845 18.6213 18.5852 17.8514C19.3861 17.0815 20.4453 16.6981 21.5046 16.6981C21.7818 16.6981 22.059 16.7245 22.3321 16.7774L17.466 21.4467Z" fill="#7B7B7B"/>
<path fill-rule="evenodd" clip-rule="evenodd" d="M35.9217 26.1661H41.5278V17.3967H47.4208C53.7888 17.3967 56.2551 13.5152 56.2551 9.5388C56.2551 5.56241 53.7888 1.69023 47.4208 1.69023H35.9217V26.1661ZM41.527 5.87194H45.8858C48.4963 5.87194 50.8192 6.42255 50.8192 9.53802C50.8192 12.6621 48.4963 13.2042 45.8858 13.2042H41.527V5.87194ZM74.3103 18.4894C74.6686 13.0416 71.6285 7.96395 65.3415 7.96395C59.7265 7.96395 55.905 12.0088 55.905 17.3275C55.905 22.8095 59.5197 26.6483 65.3415 26.6483C69.5204 26.6483 72.5613 24.8666 73.9869 20.6841H69.5195C69.197 21.7853 67.5557 22.9814 65.519 22.9814C62.6944 22.9814 61.1246 21.5784 60.9802 18.4894H74.3103ZM60.9811 15.3996C61.0533 14.0309 61.9772 11.6293 65.1964 11.6293C67.6627 11.6293 68.7667 12.9382 69.2326 15.3996H60.9811ZM75.9686 26.1661H81.0454V18.1791C81.0454 15.0636 82.3285 12.4902 86.0413 12.4902C86.6516 12.4902 87.4054 12.5587 87.8714 12.6621V8.13504C87.5117 8.02497 87.1369 7.96704 86.7594 7.96317C84.2931 7.96317 81.7903 9.50302 80.8663 11.7327H80.795V8.44457H75.9694L75.9686 26.1661ZM88.6332 26.1661H93.7012V20.0643L95.6749 18.2483L100.742 26.1661H106.895L99.1371 14.961L106.106 8.44613H100.106L93.7029 14.8233V1.68945H88.6349V26.1661H88.6332ZM108.186 26.1661H113.263V8.44535H108.186V26.1661ZM113.263 1.68945H108.186V5.70006H113.263V1.68945ZM115.568 26.1661H120.636V16.8803C120.636 13.2741 121.82 11.8027 124.573 11.8027C126.932 11.8027 127.82 13.2399 127.82 16.1579V26.1669H132.897V15.2612C132.897 10.8804 131.542 7.96317 126.144 7.96317C124 7.96317 121.785 8.91819 120.493 10.9068H120.384V8.44535H115.568V26.1661ZM134.52 20.4088C134.736 25.1076 138.916 26.6483 143.203 26.6483C147.419 26.6483 151.634 25.1419 151.634 20.4772C151.634 17.1891 148.737 16.1563 145.777 15.503C142.88 14.8575 140.019 14.6157 140.019 12.869C140.019 11.4232 141.704 11.2163 142.844 11.2163C144.665 11.2163 146.171 11.7335 146.315 13.6179H151.13C150.745 9.26271 147.023 7.96317 142.987 7.96317C139.022 7.96317 134.95 9.12506 134.95 13.6521C134.95 16.7761 137.874 17.7654 140.808 18.3852C144.449 19.1427 146.558 19.6505 146.558 21.1305C146.558 22.843 144.7 23.3936 143.238 23.3936C141.238 23.3936 139.381 22.5335 139.345 20.4072H134.52V20.4088Z" fill="#7B7B7B"/>
</svg>
