<svg width="135" height="18" viewBox="0 0 135 18" fill="none" xmlns="http://www.w3.org/2000/svg">
<path fill-rule="evenodd" clip-rule="evenodd" d="M0.764648 0.755531V3.09331H4.76076L12.5811 17.1665H22.2044L30.0248 3.07004L34.0202 3.04608L34.0288 0.755531H22.0739V3.0543H25.2577L19.7353 13.059L13.7622 3.0892L18.1192 3.07004L18.1113 0.755531H0.764648ZM77.8891 0.755531V3.09331H81.8838L89.7055 17.1665H99.3285L107.149 3.07004L111.145 3.04608L111.152 0.755531H99.1995V3.0543H102.382L96.8595 13.059L90.8866 3.0892L95.2429 3.07004L95.2357 0.755531H77.8891ZM58.2266 0.755531V3.09331H62.2227L62.2284 14.5831H58.0168V17.1453L62.2312 17.1665H82.1826V9.52768H79.583C79.441 13.5723 75.7844 14.5885 74.2452 14.5885C72.8331 14.5885 70.0986 14.5831 70.0986 14.5831V3.0892L74.0342 3.07004L74.0284 0.755531H58.2266ZM44.7747 0.284691C37.9828 0.284691 32.4776 4.16501 32.4776 8.95006C32.4776 13.7351 37.9828 17.6155 44.7747 17.6155C51.5666 17.6155 57.0726 13.7351 57.0726 8.95006C57.0726 4.16501 51.5666 0.284691 44.7747 0.284691ZM44.5985 15.0648C42.2043 15.0648 40.2644 12.313 40.2644 8.91653C40.2644 5.51937 42.2043 2.7655 44.5985 2.7655C46.9921 2.7655 48.9335 5.51937 48.9335 8.91653C48.9335 12.313 46.9921 15.0648 44.5985 15.0648ZM121.901 0C115.108 0 109.603 3.9426 109.603 8.80703C109.603 13.6694 115.108 17.6127 121.901 17.6127C128.691 17.6127 134.198 13.6694 134.198 8.80703C134.198 3.94328 128.691 0 121.901 0ZM121.724 15.021C119.33 15.021 117.39 12.2234 117.39 8.77144C117.39 5.31953 119.33 2.52118 121.724 2.52118C124.118 2.52118 126.057 5.31884 126.057 8.77144C126.057 12.2234 124.118 15.021 121.724 15.021Z" fill="#7B7B7B"/>
</svg>
